<?xml version="1.0" standalone="no"?>
<!DOCTYPE svg PUBLIC "-//W3C//DTD SVG 1.1//EN" "http://www.w3.org/Graphics/SVG/1.1/DTD/svg11.dtd" >
<svg xmlns="http://www.w3.org/2000/svg">
<metadata></metadata>
<defs>
<font id="zapfchan_md_btmedium" horiz-adv-x="1006" >
<font-face units-per-em="2048" ascent="1556" descent="-492" />
<missing-glyph horiz-adv-x="502" />
<glyph horiz-adv-x="2048" />
<glyph horiz-adv-x="2048" />
<glyph unicode="&#xd;" horiz-adv-x="502" />
<glyph unicode=" "  horiz-adv-x="502" />
<glyph unicode="&#x09;" horiz-adv-x="502" />
<glyph unicode="&#xa0;" horiz-adv-x="502" />
<glyph unicode="!" horiz-adv-x="569" d="M131 94q30 36 66.5 71.5t81.5 72.5q43 -59 66 -88.5t44 -55.5q-36 -31 -66.5 -60.5t-56.5 -58.5q-36 20 -69 49t-66 70zM211 518q0 97 8 224t23 262l16 149q33 30 72.5 50.5t91.5 33.5l-35 -205q-28 -168 -44 -329.5t-20 -311.5q-20 -16 -43 -28.5t-51 -22.5 q-9 54 -13.5 97t-4.5 81z" />
<glyph unicode="&#x22;" horiz-adv-x="678" d="M90 1362q0 48 22 74t62 26q41 0 63.5 -26t22.5 -74q0 -9 -3 -34q-1 -5 -1 -7l-66 -457h-32l-64 457q-2 17 -3 26t-1 15zM418 1360q0 49 22.5 75.5t63.5 26.5q40 0 62 -26t22 -74q0 -14 -0.5 -23t-1.5 -18l-68 -457h-31l-65 457q0 2 -1 6q-3 22 -3 33z" />
<glyph unicode="#" horiz-adv-x="1575" d="M104 467l43 115h322l100 286h-348l43 117h348l166 471h133l-168 -471h287l168 471h131l-166 -471h307l-40 -117h-310l-100 -286h332l-43 -115h-330l-166 -469h-133l166 469h-287l-166 -469h-131l166 469h-324zM600 582h289l102 286h-291z" />
<glyph unicode="$" d="M72 33l90 145q76 -32 134.5 -46.5t109.5 -14.5h16q11 103 19.5 214.5t13.5 231.5q-129 70 -190.5 146t-61.5 163q0 124 84.5 224.5t216.5 132.5l14 174l78 27l-22 -189q88 -2 150 -24t101 -66l-96 -113q-43 50 -81 75.5t-81 33.5q-9 -94 -17 -196.5t-15 -223.5l108 -70 q88 -57 127 -113.5t39 -125.5q0 -123 -96 -246t-232 -168l-14 -246l-78 -28l20 260q-19 -3 -39.5 -4.5t-41.5 -1.5q-51 0 -117 12.5t-139 36.5zM328 973q0 -62 36.5 -113.5t106.5 -89.5q8 82 15 175.5t11 201.5q-73 -2 -121 -52.5t-48 -121.5zM492 121q82 3 137 58.5 t55 133.5q0 64 -39.5 114.5t-122.5 94.5q-14 -136 -21 -228.5t-9 -172.5z" />
<glyph unicode="%" horiz-adv-x="1360" d="M88 829q0 191 106 301.5t285 110.5q4 0 87.5 -6t162.5 -6h19q159 0 218 44.5t130 176.5q26 -10 67 -24t49 -17q-20 -36 -135 -220t-207 -339l-260 -438q-173 -293 -251.5 -451t-125.5 -293l-81 127q52 89 129 224.5t104 181.5l381 637q76 126 131.5 226.5t58.5 112.5 l-211 -10q-27 -1 -56 -3.5t-66 -6.5q20 -34 29.5 -73.5t9.5 -96.5q0 -96 -18.5 -166t-57.5 -121q-50 -65 -131.5 -106t-159.5 -41q-102 0 -154.5 70t-52.5 206zM223 877q0 -119 35.5 -181.5t101.5 -62.5q81 0 123.5 76.5t42.5 220.5q0 114 -34 172.5t-101 58.5 q-75 0 -121.5 -77.5t-46.5 -206.5zM690 252q0 182 106.5 297t266.5 115q99 0 150 -69t51 -202q0 -188 -106 -305t-263 -117q-101 0 -153 71.5t-52 209.5zM825 295q0 -118 35 -180t103 -62q80 0 122.5 76.5t42.5 220.5q0 114 -34 172t-101 58q-75 0 -121.5 -77.5 t-46.5 -207.5z" />
<glyph unicode="&#x26;" horiz-adv-x="1546" d="M45 268q0 109 76.5 197t245.5 172q-7 29 -10 54t-3 46q0 70 27 131.5t86 124.5q59 65 128.5 103.5t125.5 38.5q78 0 130 -39t52 -97q0 -19 -5.5 -41t-16.5 -49q-31 -37 -57.5 -66t-53.5 -57h68q15 0 50.5 -3t55.5 -3h225q127 0 182.5 29t55.5 92q0 29 -38 73 q-13 15 -19 23l127 97q27 -25 40 -51t13 -58q0 -46 -54 -132t-112 -126q-34 -23 -84.5 -34t-126.5 -11q-24 0 -38 0.5t-25 1.5q5 -39 7.5 -65.5t2.5 -47.5q0 -91 -39.5 -173.5t-161.5 -221.5q64 -36 124 -53t124 -17q106 0 183 40.5t181 156.5v-70q-111 -142 -212 -203 t-224 -61q-89 0 -166 24t-145 73q-107 -51 -194.5 -75t-168.5 -24q-164 0 -260 82t-96 219zM225 336q0 -121 82 -205t201 -84q47 0 94.5 14t99.5 43q-100 91 -180 205.5t-139 253.5q-79 -34 -118.5 -91t-39.5 -136zM479 803q0 -24 5 -50.5t16 -60.5l49 19q99 38 149 94 t50 129q0 49 -25.5 78.5t-67.5 29.5q-71 0 -123.5 -70t-52.5 -169zM516 629q52 -136 132 -238t194 -176q67 57 99 119t32 137q0 57 -16 109t-50 104q-34 3 -66 4.5t-61 1.5q-79 0 -142.5 -15t-121.5 -46z" />
<glyph unicode="'" horiz-adv-x="348" d="M90 1360q0 50 21.5 76t62.5 26t63.5 -26t22.5 -74q0 -9 -3 -34q-1 -5 -1 -7l-66 -457h-32l-66 457q-1 8 -1.5 16t-0.5 23z" />
<glyph unicode="(" horiz-adv-x="688" d="M158 313q0 318 103 589.5t296 463.5l49 -39q-162 -179 -238.5 -395.5t-76.5 -497.5q0 -250 52 -457t157 -372l-146 -51q-102 155 -149 337.5t-47 421.5z" />
<glyph unicode=")" horiz-adv-x="688" d="M12 -428q187 225 272 471.5t85 562.5q0 209 -52.5 379.5t-160.5 314.5l139 64q114 -146 167.5 -318.5t53.5 -398.5q0 -312 -111.5 -590.5t-324.5 -500.5z" />
<glyph unicode="*" horiz-adv-x="901" d="M133 745q72 39 200 104q45 23 66 34l-237 166l65 57q63 -45 113 -87t92 -85l17 301l89 2q-7 -87 -15 -159t-17 -135l239 138l58 -80q-64 -33 -131 -64t-142 -63l256 -165l-67 -64q-49 36 -100 78t-119 102l-11 -307l-95 8q2 24 8 71q20 161 30 228l-248 -155z" />
<glyph unicode="+" horiz-adv-x="1706" d="M254 553v117h541v551h118v-551h539v-117h-539v-553h-118v553h-541z" />
<glyph unicode="," horiz-adv-x="502" d="M-10 -295q132 127 185.5 237t53.5 248q0 24 -3 70q-1 4 -1 6q35 18 69.5 28.5t69.5 14.5q2 -22 2.5 -42t0.5 -46q0 -154 -71 -274.5t-249 -259.5z" />
<glyph unicode="-" horiz-adv-x="668" d="M47 387l53 102h490l-46 -96q-31 -3 -63 -4.5t-78 -1.5h-38h-318z" />
<glyph unicode="." horiz-adv-x="502" d="M123 121q34 45 71.5 82t79.5 67q17 -28 41 -65t64 -92q-34 -43 -67.5 -76.5t-67.5 -59.5q-39 29 -68 63.5t-53 80.5z" />
<glyph unicode="/" horiz-adv-x="569" d="M-193 -190q89 149 252 457l37 71l205 389l7 14q130 252 255 514h96q-47 -81 -130 -239q-28 -54 -42 -80l-395 -752q-11 -21 -34 -65q-100 -190 -154 -309h-97z" />
<glyph unicode="0" d="M59 473q0 346 150.5 560t388.5 214q173 0 259.5 -120t86.5 -359q0 -370 -147 -590.5t-387 -220.5q-168 0 -259.5 134.5t-91.5 381.5zM238 571q0 -261 62 -394.5t183 -133.5q134 0 208.5 158t74.5 442q0 260 -62 391t-186 131q-131 0 -205.5 -157.5t-74.5 -436.5z" />
<glyph unicode="1" d="M48 -2l58 67q73 10 147.5 16t151.5 9q10 111 21 257t14 183l19 239q1 17 7 148q4 100 7 166q-34 -13 -77 -27t-132 -42l-69 33q113 51 213 98.5t200 97.5h68q-45 -406 -67 -687t-25 -466q105 -9 194.5 -18.5t171.5 -20.5l-55 -51q-122 3 -222 4.5t-177 1.5q-72 0 -296 -5 q-98 -2 -152 -3z" />
<glyph unicode="2" d="M-74 33q110 97 195 177.5t147 147.5l129 136q131 137 182.5 233t51.5 193q0 104 -53.5 166.5t-141.5 62.5q-80 0 -128 -53.5t-48 -145.5q0 -21 3.5 -48.5t15.5 -84.5l-168 -39q-8 34 -11.5 62.5t-3.5 52.5q0 137 135.5 245.5t298.5 108.5q125 0 202 -73.5t77 -190.5 q0 -92 -55.5 -186.5t-229.5 -270.5l-149 -149q-7 -7 -59.5 -64.5t-100.5 -103.5q6 1 16 3q26 5 37 5t27 -2t47 -8l186 -41q20 -4 55 -13q78 -18 107 -18q37 0 71.5 22.5t80.5 75.5l80 95l45 -43q-58 -85 -125.5 -164t-144.5 -153q-21 -6 -30.5 -7.5t-15.5 -1.5q-25 0 -97 25 q-46 16 -73 24l-153 47l-5 2q-87 29 -145 29q-57 0 -109.5 -24t-109.5 -76z" />
<glyph unicode="3" d="M-16 33l77 123q114 -47 186.5 -66.5t129.5 -19.5q151 0 247.5 92t96.5 237q0 108 -76 176t-196 68q-35 0 -71 -7t-77 -22l-96 -36l-15 47q220 95 320 179.5t100 174.5q0 64 -42.5 101.5t-114.5 37.5q-45 0 -101.5 -19t-154.5 -69l-21 39q48 39 104.5 78t125.5 80 q47 14 76 19t53 5q103 0 168 -61.5t65 -159.5q0 -55 -29 -106.5t-84 -92.5l-82 -61q141 -15 220 -86.5t79 -183.5q0 -111 -64 -223t-175 -193q-78 -57 -174.5 -87t-204.5 -30q-84 0 -149.5 16t-120.5 50z" />
<glyph unicode="4" d="M-30 346q1 31 18.5 64.5t81.5 113.5l290 371q76 96 151.5 176.5t141.5 136.5l64 43h39q-19 -168 -33 -301t-18 -182l-13 -129q0 -6 -2 -21q-8 -102 -10 -169h334l-111 -105h-229q-6 -79 -8 -118.5t-2 -59.5q0 -51 8.5 -89t27.5 -71l-151 -63l-64 14l31 387h-471 q-15 0 -34 0.5t-41 1.5zM92 449h432l29 288q2 23 9 78q18 149 24 246q-128 -140 -260 -305q-23 -29 -31 -39l-90 -111q-19 -22 -41.5 -53t-71.5 -104z" />
<glyph unicode="5" d="M23 14l92 125q93 -32 156 -45.5t112 -13.5q131 0 208 83t77 224q0 115 -70 183.5t-188 68.5q-48 0 -101.5 -12t-115.5 -37l-39 41q44 173 75.5 318.5t49.5 258.5l39 -2q200 -12 251 -12q120 0 207.5 36t194.5 128v-64q-81 -143 -164.5 -195t-292.5 -52q-45 0 -86.5 1.5 t-81.5 3.5l-90 -313q67 26 123.5 37.5t107.5 11.5q157 0 253 -87t96 -230q0 -200 -170.5 -354t-409.5 -154q-56 0 -112.5 12.5t-120.5 38.5z" />
<glyph unicode="6" d="M70 436q0 337 208.5 573t505.5 236q41 0 81.5 -6.5t86.5 -19.5l-90 -127q-59 28 -107 41.5t-91 13.5q-193 0 -311.5 -171t-123.5 -462l185 117q61 26 111 37.5t96 11.5q134 0 220.5 -80t86.5 -199q0 -172 -147.5 -306t-338.5 -134q-176 0 -274 125.5t-98 349.5zM238 424 q14 -162 96 -263.5t194 -101.5q95 0 160.5 72.5t65.5 175.5q0 105 -68.5 172.5t-175.5 67.5q-67 0 -134 -30.5t-138 -92.5z" />
<glyph unicode="7" d="M121 1118q0 13 2 28.5t6 31.5l33 114l55 35q12 -69 47 -92t146 -23h303q97 0 140.5 6t57.5 19l45 41l23 -64l-117 -163q-197 -278 -305 -491t-108 -324q0 -27 4.5 -55.5t13.5 -53.5l37 -113q-79 -22 -118 -32.5t-73 -17.5q-20 51 -29.5 92.5t-9.5 78.5q0 92 54 211 t241 399l215 324l-499 -12q-4 0 -23 -1t-33 -1q-69 0 -88.5 13.5t-19.5 49.5z" />
<glyph unicode="8" d="M68 254q0 78 27 135.5t91 114.5q29 20 92 63.5t97 67.5q-81 54 -119.5 117t-38.5 141q0 146 124 249t302 103q108 0 173 -56.5t65 -150.5q0 -60 -23.5 -113t-73.5 -106l-35 -24q-122 -85 -159 -111l133 -78q76 -45 115 -106.5t39 -134.5q0 -74 -38 -143.5t-112 -131.5 q-76 -64 -161.5 -97.5t-174.5 -33.5q-146 0 -234.5 80.5t-88.5 214.5zM258 307q0 -113 61.5 -183.5t159.5 -70.5q102 0 169 69t67 171q0 56 -37.5 112t-110.5 107l-114 82l-93 -66q-47 -33 -74.5 -92t-27.5 -129zM371 946q0 -59 33 -108t114 -107l82 62q44 32 69 84.5 t25 111.5q0 78 -41.5 126t-109.5 48q-78 0 -125 -59t-47 -158z" />
<glyph unicode="9" d="M41 10l92 119q96 -26 166.5 -38.5t120.5 -12.5q146 0 232 154.5t95 436.5q-54 -39 -109 -73.5t-114 -65.5q-49 -12 -86 -18t-63 -6q-128 0 -205.5 83.5t-77.5 219.5q0 176 143 306t340 130q165 0 258 -123t93 -344q0 -351 -190.5 -583t-473.5 -232q-53 0 -107.5 11.5 t-113.5 35.5zM250 895q0 -111 67.5 -184.5t169.5 -73.5q58 0 119 26t142 87v34q0 170 -74.5 270.5t-196.5 100.5q-98 0 -162.5 -72.5t-64.5 -187.5z" />
<glyph unicode=":" horiz-adv-x="551" d="M125 127q55 58 86.5 89t60.5 58l14 -21q60 -93 95 -144q-32 -38 -64.5 -70t-66.5 -59q-39 28 -69.5 64t-55.5 83zM166 733l123 156q25 -30 55 -63t70 -72q-33 -53 -61.5 -89t-57.5 -63q-39 25 -70.5 57.5t-58.5 73.5z" />
<glyph unicode=";" horiz-adv-x="551" d="M12 -289q103 106 146 201.5t43 218.5q0 25 -1.5 53t-4.5 60q34 20 69.5 33.5t75.5 19.5q1 -30 1.5 -55.5t0.5 -48.5q0 -153 -57.5 -256t-216.5 -238zM172 727q23 30 52 65t83 95q30 -39 61 -75t62 -69q-32 -45 -59.5 -79t-55.5 -60q-42 21 -77 51t-66 72z" />
<glyph unicode="&#x3c;" horiz-adv-x="1706" d="M264 559v103l1178 483v-127l-1000 -408l1000 -405v-129z" />
<glyph unicode="=" horiz-adv-x="1706" d="M254 360v117h1198v-117h-1198zM254 743v117h1198v-117h-1198z" />
<glyph unicode="&#x3e;" horiz-adv-x="1706" d="M264 76v129l1000 405l-1000 408v127l1178 -483v-103z" />
<glyph unicode="?" horiz-adv-x="684" d="M117 100l145 133q18 -30 50 -80t42 -67q-35 -39 -67 -65t-66 -46q-35 29 -60.5 59.5t-43.5 65.5zM119 514q0 22 4.5 46t14.5 51l67 51l32 24q252 192 252 307q0 71 -50 115.5t-132 44.5q-27 0 -59.5 -4.5t-70.5 -13.5l61 84q44 17 79.5 24.5t67.5 7.5q119 0 188.5 -52 t69.5 -140q0 -61 -27 -110t-110 -122l-140 -123l-1 -1q-93 -82 -93 -168q0 -55 49 -162l4 -11l-130 -55q-39 61 -57.5 112t-18.5 95z" />
<glyph unicode="@" horiz-adv-x="2019" d="M145 537q0 204 86 381t250 313q131 110 291 165.5t344 55.5q347 0 553.5 -187t206.5 -499q0 -157 -58 -297t-163 -236q-57 -52 -123.5 -80t-134.5 -28q-97 0 -149 52.5t-58 158.5q-62 -106 -139 -158.5t-170 -52.5q-125 0 -201 92t-76 244q0 108 49 216t138 193 q65 64 144 100t155 36q87 0 143 -49.5t78 -145.5l53 180h143l-170 -610q0 -2 -1 -5q-17 -59 -17 -104q0 -47 25.5 -74.5t68.5 -27.5q34 0 79 17.5t85 48.5q122 90 187 231t65 315q0 140 -50 252t-153 203q-90 79 -216 122.5t-267 43.5q-187 0 -341.5 -58.5t-275.5 -175.5 q-130 -126 -197 -293.5t-67 -369.5q0 -175 57 -304.5t181 -234.5q114 -97 261 -146.5t320 -49.5q163 0 317.5 52t295.5 154l30 -36q-148 -110 -313 -166t-342 -56q-187 0 -342 46.5t-274 138.5q-151 113 -229.5 274.5t-78.5 358.5zM750 375q0 -93 40.5 -147t108.5 -54 q66 0 126 44.5t116 133.5q57 94 91 202.5t34 197.5q0 93 -47.5 153t-120.5 60q-54 0 -99 -31t-92 -100q-72 -108 -114.5 -234t-42.5 -225z" />
<glyph unicode="A" horiz-adv-x="1247" d="M-166 0l73 65q30 2 69 9q8 1 12 2l100 164q101 165 193 331l327 596q20 33 61 48q3 1 5 2l71 24q48 -187 81.5 -309.5t56.5 -192.5l143 -458q41 -130 97.5 -175t176.5 -45h31l-26 -48q-55 -8 -195 -23l-40 -4l-84 -6q-59 5 -183 430q-20 71 -31 108q-22 -12 -41.5 -18 t-34.5 -6l-256 -13q-5 0 -19 -1q-53 -3 -93 -11q-64 -124 -111 -224.5t-69 -157.5q34 -3 97.5 -10t87.5 -9l-49 -68q-47 1 -102 1.5t-166 0.5q-39 0 -84.5 -0.5t-97.5 -1.5zM381 574q39 -5 86.5 -7t153.5 -2q46 0 76.5 2.5t59.5 7.5q0 5 -9 37q-56 217 -115 453z" />
<glyph unicode="B" horiz-adv-x="1180" d="M-8 0l65 61q20 4 44 6t75 5q32 355 50 630t18 408v41q-30 0 -96 4.5t-94 6.5l65 61h182q116 0 244.5 4t140.5 4q144 0 217.5 -60t73.5 -178q0 -99 -67.5 -175t-219.5 -146q186 -14 272.5 -80t86.5 -193q0 -196 -141.5 -301.5t-405.5 -105.5q-59 0 -196.5 2t-313.5 6z M342 72q28 -6 59 -8.5t70 -2.5q191 0 289 73.5t98 215.5q0 128 -102.5 194t-300.5 66q-24 0 -52 -1t-32 -1q-12 -138 -19 -271.5t-10 -264.5zM377 678q7 0 20.5 -1t20.5 -1q164 0 272.5 81.5t108.5 198.5q0 97 -72 146t-215 49h-96q-16 -156 -25 -266t-14 -207z" />
<glyph unicode="C" horiz-adv-x="1180" d="M61 473q0 150 54 294.5t149 250.5q101 113 236 175t280 62q90 0 169 -25.5t149 -78.5l-68 -254l-51 -25v15q0 134 -75.5 212.5t-203.5 78.5q-191 0 -320.5 -178t-129.5 -453q0 -230 107.5 -362t293.5 -132q93 0 201 41.5t235 126.5q1 -3 4 -16t3 -19q0 -1 -2.5 -10.5 t-4.5 -18.5q-116 -92 -255 -141t-285 -49q-223 0 -354.5 137t-131.5 369z" />
<glyph unicode="D" horiz-adv-x="1395" d="M-30 0l70 63q23 4 51 7t81 8q17 164 40 473l3 39l8 129q11 146 15 228.5t4 146.5v57q-52 4 -139 10q-37 3 -53 5l63 55h194q88 0 210 3t155 3q358 0 504.5 -113t146.5 -381q0 -155 -42.5 -285.5t-125.5 -228.5q-100 -119 -234 -170t-362 -51q-57 0 -181 2t-190 2 q-57 0 -110 -0.5t-108 -1.5zM342 87l25 -3q230 -21 303 -21q230 0 353.5 163.5t123.5 465.5q0 239 -125.5 355t-382.5 116q-30 0 -85.5 -3t-137.5 -9q-29 -270 -46.5 -495.5t-17.5 -293.5l-4 -91t-6 -184z" />
<glyph unicode="E" horiz-adv-x="1161" d="M-8 0l51 72q19 2 65 6t66 8q15 160 24.5 281t16.5 223l8 129q10 126 14.5 218.5t4.5 172.5l-1 37q-45 7 -93.5 12t-103.5 8l56 56h111h139q88 0 237 2.5t324 7.5l41 -103l-108 -110q-44 75 -94.5 102t-176.5 27q-41 0 -81 -3t-82 -9q-14 -156 -22 -264.5t-13 -196.5 q17 -9 36.5 -13t57.5 -4h317l-57 -67l-280 -12q-26 -2 -46.5 -5.5t-35.5 -9.5q-9 -101 -15.5 -217.5t-11.5 -254.5q31 -6 66 -8.5t79 -2.5h187q140 0 226.5 64.5t186.5 259.5l43 -27q-27 -81 -64 -169t-95 -210h-977z" />
<glyph unicode="F" horiz-adv-x="920" d="M-6 0l51 70q22 2 69 7t66 7q14 108 22.5 204.5t12.5 184.5q1 9 1.5 20.5t0.5 32.5q0 22 -0.5 32t-1.5 17l-53 9l61 86q14 187 18.5 281.5t4.5 166.5l-1 35q-44 2 -92.5 6.5t-98.5 12.5l69 51h131h133q18 0 160 3t266 3h82l37 -90l-105 -113q-43 74 -92 100.5t-178 26.5 q-32 0 -68 -2.5t-77 -7.5q-14 -169 -22 -275.5t-13 -191.5q13 -10 51 -12h16l320 -15l-60 -57q-79 -8 -160 -12t-180 -7q-7 -107 -18 -363q-3 -76 -4 -115q80 -12 131.5 -18.5t95.5 -11.5l-60 -65q-50 1 -104.5 1.5t-148.5 0.5q-74 0 -136.5 -0.5t-125.5 -1.5z" />
<glyph unicode="G" horiz-adv-x="1290" d="M68 481q0 329 214.5 551.5t530.5 222.5q124 0 219.5 -35t163.5 -106l-68 -246l-51 -22q-17 164 -103 249t-235 85q-217 0 -348 -173.5t-131 -461.5q0 -223 107 -357.5t280 -134.5q133 0 221 76t88 188q0 135 -279 151q-33 2 -50 3l84 61h530q-23 -34 -51 -54.5t-70 -33.5 l-39 -442l-120 -55l-13 135q-78 -56 -181 -85.5t-218 -29.5q-226 0 -353.5 136.5t-127.5 377.5z" />
<glyph unicode="H" horiz-adv-x="1374" d="M-12 0l71 61q5 1 16 3q65 10 97 14q15 157 26 286.5t17 225.5l8 128q11 164 15 241.5t4 134.5l-1 53q-45 5 -85.5 11t-75.5 13l62 52q72 -3 122.5 -4t77.5 -2q55 0 119 1.5t137 4.5l-53 -52l-5 -1q-79 -17 -128 -23q-11 -98 -18 -198t-11 -209q18 -32 62 -45t141 -13 q36 0 151 4t269 10q11 116 18 229t10 224q-34 4 -74.5 11t-89.5 18l74 45q58 -2 112 -3t118 -1q38 0 150 2q43 1 67 2l-63 -63q-19 -3 -61.5 -9t-62.5 -9q-20 -126 -37 -391q-3 -36 -4 -53l-11 -182v-2q-18 -265 -19 -438q12 -2 37 -5q83 -9 128 -16l-66 -55q-79 3 -128 4.5 t-72 1.5q-53 0 -143 -2.5t-117 -3.5l57 59q46 10 78 15t61 8q13 147 19.5 266t7.5 224q-14 29 -68.5 42t-172.5 13q-67 0 -163 -5t-220 -14q-14 -154 -21 -281.5t-10 -246.5q50 -4 90.5 -9.5t77.5 -13.5l-60 -57q-78 3 -133.5 4.5t-85.5 1.5q-52 0 -112 -1.5t-129 -4.5z" />
<glyph unicode="I" horiz-adv-x="578" d="M-47 0l79 69q45 6 130 14l12 1q14 131 24.5 258.5t18.5 247.5l8 129q12 172 15.5 246.5t3.5 130.5v51q-28 4 -60.5 9t-95.5 15l61 51q56 0 107.5 -0.5t105.5 -0.5q76 0 138 0.5t126 0.5l-53 -55q-45 -10 -83 -15t-72 -5q-29 -298 -46.5 -562.5t-24.5 -500.5 q46 -2 98.5 -7.5t113.5 -15.5l-64 -61q-62 1 -119 1.5t-120 0.5q-86 0 -157.5 -0.5t-145.5 -1.5z" />
<glyph unicode="J" horiz-adv-x="578" d="M-354 -332l110 119q54 -57 109 -88t100 -31q188 0 243 797q6 82 9 124l10 130q11 152 15 231t4 137q0 12 -1 33t-2 31q-67 3 -124.5 8t-109.5 13l52 51q58 -2 113 -3t125 -1q73 0 133.5 1t124.5 3l-54 -52q-22 -7 -54 -18.5t-39 -13.5q-25 -342 -39 -534.5t-17 -248.5 l-6 -106v-9q-21 -345 -72 -438q-51 -96 -177.5 -174t-225.5 -78q-61 0 -120.5 30.5t-106.5 86.5z" />
<glyph unicode="K" horiz-adv-x="1270" d="M-12 0l59 61q27 4 70 10t55 7q15 157 26 286.5t17 225.5l8 129q12 172 15.5 246.5t3.5 130.5v51q-42 4 -125 17q-35 5 -51 8l56 50q80 -2 135 -3t85 -2q56 0 120.5 1.5t135.5 4.5l-53 -52l-5 -1q-79 -17 -128 -23q-12 -103 -19.5 -216t-11.5 -249q81 70 123.5 106.5 t56.5 49.5l246 233q125 119 176.5 149.5t97.5 30.5q26 0 55.5 -13t82.5 -50l-89 -166q-38 28 -68 40.5t-58 12.5q-46 0 -107 -35t-131 -102l-63 -61q-7 -6 -57.5 -61.5t-90.5 -98.5l305 -359q10 -11 29 -34q227 -267 403 -267h11l-50 -51q-75 -8 -136 -12t-99 -4 q-69 0 -169 125q-43 53 -71 86l-354 417l-53 -38q-13 -122 -20.5 -247t-10.5 -253q52 -5 164 -17q37 -4 55 -6l-68 -57q-75 3 -140 4.5t-122 1.5q-32 0 -92 -1.5t-149 -4.5z" />
<glyph unicode="L" horiz-adv-x="1085" d="M-14 0l47 72q33 2 80.5 8.5t56.5 7.5q11 104 21 217t22 285l8 129q11 143 16 246q4 86 4 156v28q-62 5 -94 8.5t-58 8.5l71 57q61 -1 116 -2t105 0q89 0 142.5 0.5t102.5 0.5l-48 -63q-42 -10 -82.5 -15t-81.5 -5q-18 -174 -32 -395q-4 -50 -5 -68l-6 -92q-1 -19 -6 -78 q-16 -227 -25 -418q19 -5 35.5 -7.5t32.5 -2.5h256q126 0 194.5 68.5t151.5 277.5l53 -21q-23 -94 -53.5 -193.5t-69.5 -209.5h-954z" />
<glyph unicode="M" horiz-adv-x="1655" d="M-28 0l46 63q35 5 107 16q29 5 43 7q11 74 21 176.5t26 327.5l12 158q9 123 13 199.5t4 119.5q0 60 -38 82t-149 22h-49l68 62q93 9 145.5 12.5t85.5 3.5q16 0 56 -3q8 0 12 -1q30 -2 57 -76l6 -15l162 -417q92 -236 132.5 -333t70.5 -154q59 81 111.5 159.5t99.5 155.5 l116 191q99 160 153.5 268t80.5 193l330 6l-52 -64q-111 -8 -138 -29t-27 -77q0 -4 -3 -34t-6 -56l-22 -289q-12 -146 -18.5 -253t-6.5 -175q0 -117 39.5 -156t147.5 -39q21 0 74 4h12l-47 -55q-17 -2 -48 -6q-205 -27 -262 -27q-46 0 -63 20t-17 74q0 17 2.5 55t6.5 85 l57 739q-39 -69 -72.5 -126.5t-66.5 -111.5l-113 -184q-101 -164 -163.5 -285.5t-90.5 -209.5l-88 -35q-46 130 -96.5 262.5t-106.5 269.5l-206 508q-9 -116 -14.5 -282.5t-6.5 -196.5l-8 -186q-5 -109 -6.5 -167.5t-1.5 -109.5q44 -8 88.5 -15.5t91.5 -15.5l-48 -55 q-48 1 -94 1.5t-96 0.5q-78 0 -136.5 -0.5t-116.5 -1.5z" />
<glyph unicode="N" horiz-adv-x="1417" d="M5 0l44 59q19 5 61.5 13.5t65.5 13.5q19 205 35 431l6 72l33 464q-12 18 -26 42t-31 53q-29 6 -85 15t-75 13l50 40q47 4 88.5 5.5t82.5 1.5h149q6 -58 39.5 -129.5t85.5 -137.5l410 -512q36 -45 77 -101.5t85 -119.5l22 665q1 27 1.5 54t0.5 64q0 45 -3 129l-1 6 q-47 1 -96 9.5t-96 23.5l73 49q53 -2 104 -3t116 -1q62 0 114.5 1t108.5 3l-68 -68q-42 -8 -72 -11t-57 -3q-6 -52 -10 -95.5t-6 -82.5l-23 -289q-15 -195 -24 -352.5t-13 -278.5l-114 -78q-42 76 -93 153t-112 156l-387 500q-7 9 -58.5 74.5t-87.5 109.5 q-6 -113 -10.5 -214.5t-7.5 -195.5l-4 -188q-1 -42 -1.5 -81t-0.5 -72q0 -47 0.5 -73t1.5 -48q16 -3 49 -10q93 -19 141 -27l-53 -49q-54 1 -103.5 1.5t-97.5 0.5q-71 0 -123.5 -0.5t-104.5 -1.5z" />
<glyph unicode="O" horiz-adv-x="1380" d="M70 512q0 154 49 285.5t143 230.5q99 103 249.5 165t303.5 62q232 0 363 -142.5t131 -395.5q0 -156 -50.5 -292t-144.5 -232q-100 -104 -247.5 -165t-299.5 -61q-235 0 -366 143.5t-131 401.5zM250 565q0 -242 109 -381t298 -139q209 0 341 169t132 441q0 246 -106 385.5 t-291 139.5q-218 0 -350.5 -167.5t-132.5 -447.5z" />
<glyph unicode="P" horiz-adv-x="1063" d="M-28 0l62 61q59 8 88 11.5t52 5.5l5 55q28 291 40 457l29 389q3 28 4.5 60.5t1.5 70.5v37q-49 4 -99 10t-104 14l55 52h510q259 0 349 -64t90 -219q0 -194 -147 -318t-384 -124h-10l-47 49q189 9 291 104t102 262q0 128 -71 188t-222 60q-41 0 -75.5 -3.5t-63.5 -10.5 q-11 -83 -20 -164t-15 -160l-28 -356q-7 -74 -11.5 -174t-7.5 -213q49 -3 104.5 -8t135.5 -15l-50 -57q-67 1 -134 1.5t-158 0.5q-73 0 -138 -0.5t-134 -1.5z" />
<glyph unicode="Q" horiz-adv-x="1380" d="M70 512q0 153 48.5 283t143.5 231q98 105 249 167t304 62q232 0 363 -142.5t131 -395.5q0 -236 -108.5 -412.5t-307.5 -265.5q99 -144 202 -217.5t208 -73.5q24 0 57 5.5t73 16.5l-26 -51q-57 -21 -105 -31t-94 -10q-128 0 -250.5 73t-259.5 231q-48 -8 -81 -11.5 t-60 -3.5q-229 0 -358 144.5t-129 400.5zM250 569q0 -237 105 -380.5t274 -143.5q10 0 25.5 1t47.5 3l123 90l31 -47q134 76 204 220t70 341q0 247 -105.5 387t-291.5 140q-218 0 -350.5 -167t-132.5 -444z" />
<glyph unicode="R" horiz-adv-x="1174" d="M-24 0l63 61q26 5 54.5 10t84.5 15q11 108 21.5 233.5t21.5 270.5l31 389q3 27 4.5 59.5t1.5 71.5v36q-50 6 -97 12t-93 13l41 52q14 -1 40 -1q152 -3 216 -3q131 0 275 4q38 2 46 2q139 0 213 -53t74 -152q0 -125 -71.5 -216.5t-223.5 -160.5l295 -442q40 -62 108.5 -99 t167.5 -51l-35 -47q-94 -7 -252 -14q-27 -2 -39 -2q-17 5 -29.5 14.5t-23.5 26.5l-340 563l-157 -39q-13 -160 -19.5 -271t-7.5 -195q38 -5 80.5 -13t105.5 -25l-77 -49q-56 1 -107.5 1.5t-101.5 0.5q-77 0 -140.5 -0.5t-129.5 -1.5zM379 627q180 22 282.5 116.5 t102.5 235.5q0 83 -61 131.5t-166 48.5q-31 0 -57 -4t-48 -12q-17 -73 -28 -174t-25 -342z" />
<glyph unicode="S" horiz-adv-x="944" d="M2 135q0 13 1 19t3 10l84 211l57 12q-6 -32 -9 -55.5t-3 -42.5q0 -101 78 -165.5t199 -64.5q116 0 195 72.5t79 177.5q0 121 -176 249l-18 13q-12 9 -37 27q-234 168 -234 313q0 143 121.5 246t292.5 103q87 0 139.5 -31.5t52.5 -81.5q0 -19 -27.5 -81.5t-41.5 -102.5 h-47q2 12 3 24.5t1 30.5q0 67 -48.5 112.5t-119.5 45.5q-78 0 -134.5 -58.5t-56.5 -138.5q0 -66 52.5 -129.5t180.5 -150.5q12 -8 31 -21q220 -146 220 -283q0 -172 -153.5 -300t-367.5 -128q-126 0 -221.5 53.5t-95.5 114.5z" />
<glyph unicode="T" horiz-adv-x="1194" d="M72 848q13 94 28 189.5t34 195.5q107 -5 216.5 -7.5t224.5 -2.5h150q172 0 275.5 7t183.5 23v-12q2 -63 2 -127q0 -13 -1.5 -64.5t-4.5 -145.5l-58 -34l-59 213q-11 43 -40.5 58.5t-127.5 15.5h-37q-17 0 -75 -2q-33 -1 -52 -2q-14 -204 -30.5 -480.5t-32.5 -588.5 q12 -1 40 -4q116 -11 191 -23l-43 -57q-73 1 -142 1.5t-145 0.5q-96 0 -166.5 -0.5t-141.5 -1.5l52 61q36 5 76 11t88 14q26 199 45 467q1 25 2 37l11 129q11 150 17.5 251t10.5 183q-53 3 -79 3.5t-48 0.5q-125 0 -159 -17t-52 -65l-86 -227h-67z" />
<glyph unicode="U" horiz-adv-x="1403" d="M44 1169l58 54q24 -1 67 -2q107 -2 144 -2q107 0 160 0.5t98 3.5l-55 -64l-88 -16l-53 -434q-13 -104 -20 -197t-7 -162q0 -135 51 -198.5t160 -63.5q78 0 184.5 36.5t245.5 111.5q16 201 28 414l1 12l14 237q3 44 4.5 93t1.5 104v49q-43 7 -81.5 15t-73.5 18l67 45 q42 -2 81 -3t89 -1q100 0 150 0.5t92 3.5l-59 -64l-88 -14q-8 -150 -24 -354q-5 -66 -7 -92l-15 -183q-7 -104 -11.5 -186.5t-4.5 -122.5q0 -86 40 -119t150 -33h46l-39 -55q-99 -14 -175.5 -21.5t-121.5 -7.5q-44 0 -59 12.5t-15 43.5v41l4 71q-36 0 -110 -32q-9 -4 -14 -6 l-101 -44l-30 -12q-185 -78 -286 -78q-131 0 -196.5 71.5t-65.5 215.5q0 43 4 116t11 155l24 277q1 16 4 46q18 219 18 294v7q-38 3 -129 13q-45 5 -68 7z" />
<glyph unicode="V" horiz-adv-x="1171" d="M6 1176l51 47q106 0 199 2t180 6l-47 -60q-16 -9 -31.5 -15t-31.5 -9l118 -739q3 -16 8 -49q16 -110 33 -175q41 60 132 177l28 36l100 127q106 136 154.5 238t48.5 188q0 57 -25 108.5t-87 121.5q40 30 82.5 55.5t87.5 46.5q55 -56 82.5 -110t27.5 -109q0 -94 -52 -202 t-198 -298l-137 -182q-15 -20 -48 -61q-137 -172 -196 -295q-34 -19 -70 -29.5t-77 -13.5q-8 86 -22 186t-33 211l-54 301l-9 54q-44 259 -83 419q-27 1 -59.5 6.5t-71.5 16.5z" />
<glyph unicode="W" horiz-adv-x="1868" d="M19 1170l59 53h155q51 0 98 1t97 3l-43 -56q-14 -9 -29.5 -15t-31.5 -9l112 -739q1 -8 4 -25q14 -84 21 -147q44 79 112 193t89 153l159 290q48 88 84.5 171t61.5 163q8 2 23 5q55 12 85 12q21 -162 34.5 -263.5t20.5 -145.5l66 -407q7 -43 19 -122t16 -107 q28 44 67.5 99.5t85.5 119.5l97 127q97 134 142.5 236t45.5 188q0 57 -24 110t-82 122q33 27 74 53t87 49q56 -61 80.5 -113t24.5 -110q0 -90 -49.5 -197t-186.5 -299l-129 -182q-13 -19 -43 -59q-127 -168 -186 -297q-34 -20 -68 -30.5t-71 -12.5q-2 39 -16 145t-38 252 l-47 301q0 1 -15.5 92.5t-27.5 173.5q-73 -120 -148 -259q-8 -15 -11 -21l-117 -209q-81 -141 -132.5 -253t-68.5 -179q-34 -20 -67 -30t-72 -13q-2 39 -16 145t-37 252l-47 300q-4 24 -12 75q-38 244 -77 395q-34 7 -65.5 12t-62.5 9z" />
<glyph unicode="X" horiz-adv-x="1157" d="M-109 -8q16 41 41.5 102t32.5 78q6 -1 19 -3q57 -9 79 -9q82 0 151.5 47.5t121.5 138.5l164 287l-127 330q-38 96 -65.5 133t-59.5 37q-23 0 -86 -9.5t-94 -13.5l45 68q118 36 190.5 55.5t85.5 19.5q22 0 37 -15.5t35 -68.5l141 -368l154 256q66 109 122.5 153.5 t127.5 44.5q36 0 69 -9.5t68 -31.5q-14 -39 -32 -77.5t-40 -75.5q-54 18 -82.5 25.5t-46.5 7.5q-77 0 -174 -161l-2 -3l-129 -217l160 -412q53 -139 106 -183t146 -44q19 0 45 1.5t59 4.5l-39 -68q-106 -16 -188 -26.5t-107 -10.5q-72 0 -126 150q-16 45 -25 69l-133 351 l-129 -223q-135 -236 -213 -290.5t-203 -54.5q-18 0 -40.5 3.5t-58.5 11.5z" />
<glyph unicode="Y" horiz-adv-x="1229" d="M-16 1032l4 58q84 87 165 130.5t160 43.5q94 0 177 -63t126 -167q34 -80 45 -302q3 -58 5 -88q97 276 235 442.5t262 166.5q30 0 59 -11t62 -36l-92 -147q-33 18 -59.5 26.5t-51.5 8.5q-144 0 -272.5 -264t-128.5 -623v-125q53 0 102.5 -5t98.5 -16l-80 -63q-58 2 -119 3 t-166 1q-46 0 -97.5 -0.5t-109.5 -1.5l53 63q37 8 73.5 12.5t72.5 6.5q9 110 13.5 179t4.5 95v277q0 217 -85 355t-216 138q-41 0 -93 -19.5t-148 -74.5z" />
<glyph unicode="Z" horiz-adv-x="1341" d="M-14 -29q107 145 213 282t213 269l120 150q39 47 155.5 187.5t191.5 232.5q-35 -7 -67.5 -10t-66.5 -3l-229 -4h-65h-70q-88 0 -124 -39t-97 -196l-49 39l8 37q74 321 168 321q26 0 82 -7t86 -7l522 -6q27 6 50 17t44 28l43 -31q-153 -164 -352 -404q-58 -70 -82 -98 l-51 -59q-80 -94 -174.5 -215.5t-198.5 -264.5q24 7 46 10t46 3q32 0 78 -5.5t154 -23.5l128 -20q54 -9 107 -14t98 -5q123 0 201 31.5t182 112.5l31 -31q-77 -91 -139.5 -155.5t-117.5 -110.5q-24 -8 -40 -11.5t-29 -3.5q-37 0 -215 20q-77 8 -123 13l-104 12q-3 1 -8 1 q-149 16 -275 16q-85 0 -143 -21t-113 -69z" />
<glyph unicode="[" horiz-adv-x="688" d="M90 -172q0 109 7 278t20 386q14 238 26.5 393.5t24.5 244.5l12 91q10 76 53.5 102.5t225.5 26.5h18h84h96l-39 -64l-137 -8q-152 -8 -172 -182q-1 -12 -2 -19l-18 -151q-7 -57 -16 -169t-19 -261q-18 -268 -25.5 -402t-7.5 -200v-123q0 -107 195 -122l42 -3l89 -6 l-53 -62h-213q-21 0 -54.5 -3t-46.5 -3q-52 0 -71 20.5t-19 106.5v12v117z" />
<glyph unicode="\" horiz-adv-x="569" d="M92 1255h86q32 -156 64.5 -301.5t68.5 -298.5l66 -262q9 -37 28 -114q76 -312 123 -469h-86q-16 80 -39.5 181t-60.5 251l-162 661q-21 92 -43 179t-45 173z" />
<glyph unicode="]" horiz-adv-x="688" d="M33 -428l37 63l139 9q152 7 172 181q1 12 2 19l18 151q6 46 13.5 142.5t19.5 288.5q19 268 26 402t7 200v123q0 106 -194 121q-29 3 -44 4l-88 6l56 61h213q20 0 53.5 3.5t46.5 3.5q52 0 71 -20.5t19 -106.5v-13v-116q0 -100 -7 -261.5t-22 -402.5q-14 -239 -26.5 -394 t-24.5 -245l-10 -90q-10 -76 -54 -102.5t-227 -26.5h-18h-82h-96z" />
<glyph unicode="^" horiz-adv-x="2048" d="M412 897l522 565h178l520 -565h-92l-518 436l-520 -436h-90z" />
<glyph unicode="_" horiz-adv-x="1024" d="M0 -365h1024v-118h-1024v118z" />
<glyph unicode="`" horiz-adv-x="1024" d="M379 1276l86 35q55 -82 106.5 -168.5t98.5 -175.5l-45 -21z" />
<glyph unicode="a" horiz-adv-x="797" d="M43 285q0 156 32.5 282t86.5 185q63 69 142 110t151 41q42 0 106 -11t150 -34l-47 -88q-13 -115 -20 -194.5t-7 -94.5q0 -2 -1 -18q-5 -72 -5 -141q0 -105 11 -143t38 -38q14 0 142 93l44 32v-67l-98 -82q-32 -27 -80.5 -63.5t-109.5 -80.5h-11q-16 0 -28.5 4t-23.5 12 q-16 46 -24 92t-10 97q-99 -71 -173.5 -120.5t-122.5 -77.5q-9 -3 -17.5 -5t-13.5 -2q-4 0 -10 1.5t-20 5.5q-43 30 -62 100.5t-19 204.5zM193 362q0 -93 24 -159t51 -66q9 0 28.5 10t45.5 27l141 94q4 90 10.5 184.5t16.5 211.5l8 91q-36 14 -72.5 20.5t-76.5 6.5 q-52 0 -80 -20.5t-47 -73.5q-23 -64 -36 -150t-13 -176z" />
<glyph unicode="b" horiz-adv-x="834" d="M63 -35l70 1014q12 172 75 257t253 216q17 9 34.5 13.5t41.5 4.5q13 0 45 -2t73 -6l-69 -119h-56q-129 0 -180 -71t-69 -301l-19 -252l117 82q65 46 118 68t99 22q66 0 104.5 -69t38.5 -187q0 -158 -30.5 -286.5t-75.5 -170.5q-95 -93 -176.5 -147t-126.5 -54 q-22 0 -80.5 17t-90.5 24l-42 -43zM223 160q63 -30 101.5 -42t68.5 -12q87 0 139 111.5t52 300.5q0 118 -24.5 177t-72.5 59q-34 0 -95.5 -35.5t-133.5 -97.5q-13 -126 -21.5 -240.5t-13.5 -220.5z" />
<glyph unicode="c" horiz-adv-x="711" d="M45 315q0 146 32 260.5t85 163.5q76 71 159.5 118.5t127.5 47.5q53 0 91 -37.5t72 -126.5q-31 -28 -65 -51t-72 -41q-38 86 -59.5 109.5t-50.5 23.5q-78 0 -121 -91.5t-43 -256.5q0 -164 56.5 -254t158.5 -90q45 0 140.5 49t143.5 68v-66q-178 -110 -250 -140t-131 -30 q-133 0 -203.5 88.5t-70.5 255.5z" />
<glyph unicode="d" horiz-adv-x="815" d="M49 279q0 126 22.5 246t49.5 167q18 31 63.5 73.5t106.5 84.5q44 30 69 37.5t66 7.5h15q41 -2 77 -2l12 182q11 158 215 334q44 38 68 59q15 1 30 1.5t36 0.5q26 0 50 -3.5t50 -12.5l-70 -121l-49 15q-3 1 -6 1.5t-10 0.5q-61 0 -91.5 -22.5t-45.5 -78.5 q-17 -66 -34 -218.5t-24 -323.5l-4 -140q-2 -66 -5 -133t-3 -72q0 -11 -1 -31.5t-1 -29.5v-12l4 -51q3 -55 14.5 -76t38.5 -21q31 0 94 47q29 21 45 31l48 29v-70l-68 -55q-82 -69 -148.5 -109.5t-95.5 -40.5h-6q-15 0 -25.5 4t-19.5 13q-12 34 -16 72l-4 38l-15 80 l-108 -86q-8 -5 -23 -17q-93 -70 -155 -104h-13q-13 0 -23 2.5t-20 8.5q-44 33 -67 108t-23 187zM193 346q0 -99 23.5 -152t68.5 -53q32 0 89 36.5t111 94.5q3 106 9.5 222t15.5 243q-40 26 -76 37.5t-74 11.5q-47 0 -71 -15.5t-41 -61.5q-26 -68 -40.5 -164t-14.5 -199z " />
<glyph unicode="e" horiz-adv-x="717" d="M57 346q0 139 33.5 243.5t99.5 172.5q62 63 145.5 103t149.5 40q70 0 112 -42t42 -111q0 -136 -309 -315q-78 -45 -121 -70v-7q0 -112 58 -187t141 -75q97 0 278 104q32 18 49 27q1 -2 3.5 -13t2.5 -17q0 -3 -1.5 -13.5t-2.5 -15.5q-109 -94 -218.5 -145.5t-201.5 -51.5 q-135 0 -197.5 89.5t-62.5 283.5zM203 451q133 61 196.5 122.5t63.5 131.5q0 43 -22.5 69.5t-59.5 26.5q-73 0 -125.5 -94.5t-52.5 -241.5v-14z" />
<glyph unicode="f" horiz-adv-x="578" d="M-260 -643l94 143h92q107 0 148.5 25t60.5 98q24 86 40 239.5t26 385.5l18 438q-57 0 -113 1.5t-110 4.5l65 70q63 0 97.5 0.5t64.5 1.5q1 23 2 67q10 320 97 429q94 117 167 161.5t164 44.5q37 0 79 -3t85 -9l-74 -123q-6 0 -18 1q-70 3 -96 3q-140 0 -187.5 -63.5 t-62.5 -378.5l-6 -131q76 0 239 -8h13l-73 -62q-41 -3 -88.5 -4.5t-98.5 -1.5l-21 -381q-2 -31 -4 -89q-23 -479 -158 -675q-74 -107 -143.5 -145.5t-200.5 -38.5h-98z" />
<glyph unicode="g" horiz-adv-x="793" d="M-119 -608l94 137q89 -20 152.5 -29.5t114.5 -9.5q91 0 138 24t73 83q17 37 37.5 158.5t33.5 277.5l13 162l-154 -109l-27 -18q-78 -54 -128 -78q-7 -4 -16 -6t-19 -2h-13q-54 12 -92.5 87t-38.5 173q0 270 90 426.5t283 224.5q45 8 75.5 11t55.5 3q55 0 120.5 -8.5 t139.5 -26.5l-86 -106q-2 -2 -5.5 -18.5t-4.5 -34.5l-12 -144q-1 -5 -2 -16q-16 -168 -23 -344l-8 -152q-9 -199 -33.5 -290.5t-77.5 -163.5q-87 -123 -178 -184.5t-184 -61.5q-26 0 -56 2t-61 6zM215 328q0 -80 25.5 -128t64.5 -48q19 0 54 18.5t96 60.5l86 60 q9 91 24.5 257.5t21.5 221.5q-48 8 -84 12t-63 4q-73 0 -106.5 -16.5t-52.5 -64.5q-26 -69 -46 -181.5t-20 -195.5z" />
<glyph unicode="h" horiz-adv-x="963" d="M125 -27l55 805q3 33 6 92q17 277 72 365q70 115 159 176.5t185 61.5q15 -1 30 -2.5t27 -4.5l-49 -116h-53q-110 0 -154.5 -60t-58.5 -252l-4 -49q-7 -81 -14.5 -190.5t-9.5 -138.5l13 8q297 187 429 231q9 -3 16 -8t17 -17q-8 -71 -12.5 -122t-6.5 -87l-16 -273 q-1 -20 -1.5 -50t-0.5 -104q0 -45 15.5 -69t45.5 -24q24 0 79 30.5t122 80.5v-59q-68 -64 -141 -119t-152 -103h-25q-2 0 -17 3q-6 1 -9 2q-38 23 -54 63t-16 113q0 33 0.5 52t1.5 37l17 234q4 79 9 155l1 13q0 37 -10.5 54.5t-32.5 17.5q-29 0 -84 -27.5t-193 -113.5 l-39 -543z" />
<glyph unicode="i" horiz-adv-x="516" d="M2 678v61q59 40 132.5 81.5t171.5 88.5q10 -1 18.5 -7.5t15.5 -19.5q-3 -67 -7.5 -144t-10.5 -165l-15 -195q-3 -34 -4.5 -66t-1.5 -62q0 -58 17 -88.5t51 -30.5q24 0 65 20t123 74v-67q-66 -54 -138 -99.5t-153 -83.5h-24q-5 0 -21 3q-5 1 -8 2q-36 22 -55 55t-19 74 q0 26 2 62t6 77l27 282q2 36 3 60.5t1 46.5q0 49 -8.5 71.5t-28.5 22.5q-27 0 -63 -14t-76 -39zM203 1192q34 33 70 60t73 48q22 -48 40.5 -81.5t37.5 -59.5q-26 -35 -60.5 -59.5t-80.5 -42.5q-28 24 -47.5 57.5t-32.5 77.5z" />
<glyph unicode="j" horiz-adv-x="494" d="M-281 -645l62 137l98 -4h29q205 0 231 340q2 18 2 27l19 254q12 154 18 292.5t6 225.5q0 56 -11 75t-46 19q-16 0 -54.5 -9.5t-125.5 -35.5v57q72 31 186.5 92.5t161.5 81.5q11 -4 21 -11.5t18 -19.5q0 -56 -2 -121t-6 -171l-7 -130q-11 -265 -23 -474q-1 -10 -1 -13 l-6 -98q-7 -114 -40 -192.5t-102 -157.5q-80 -93 -146.5 -129.5t-164.5 -36.5q-28 0 -57 0.5t-60 1.5zM158 1171l139 125q16 -40 39.5 -74.5t54.5 -66.5q-44 -57 -75 -84t-60 -35q-33 26 -56.5 58.5t-41.5 76.5z" />
<glyph unicode="k" horiz-adv-x="797" d="M59 -29l82 990q1 9 2 26q12 162 54 223q23 37 69 86t103 97q56 47 94.5 60t99.5 13q36 0 57.5 -0.5t40.5 -1.5l-61 -127q-27 1 -52.5 1.5t-51.5 0.5q-107 0 -150 -82t-76 -458l-6 -74l53 35q120 79 175.5 106t91.5 27q45 0 72.5 -39t27.5 -104q0 -43 -11 -81.5t-34 -78.5 q-28 -28 -69 -59.5t-136 -94.5l111 -188q37 -62 60 -81.5t50 -19.5q34 0 98 43q7 4 10 6l89 62v-55q-49 -53 -93.5 -93.5t-86.5 -70.5l-72 -55q-8 -7 -17 -10t-20 -3q-40 0 -112 135q-11 21 -17 31l-123 232q-28 -15 -47 -24.5l-37 -18.5l-22 -318zM230 389 q159 78 227.5 146t68.5 145q0 35 -18.5 55.5t-50.5 20.5q-25 0 -60.5 -15.5t-77.5 -44.5l-63 -45q-9 -59 -15.5 -123t-10.5 -139z" />
<glyph unicode="l" horiz-adv-x="465" d="M94 152q0 11 2.5 53.5l5.5 93.5l50 692q9 136 23.5 193.5t41.5 93.5q19 25 57 62.5t82 74.5q43 36 71.5 47t94.5 11q3 0 16 -1q50 -2 93 -2l-72 -124q-25 2 -50 3t-58 1q-60 0 -81.5 -14t-33.5 -52t-26.5 -164.5t-26.5 -310.5l-27 -371q-2 -31 -3 -60t-1 -65 q0 -78 20.5 -118.5t59.5 -40.5q27 0 103 46q18 11 28 17l67 43v-59q-155 -129 -212 -167t-97 -48l-43 6q-45 26 -64.5 62.5t-19.5 97.5z" />
<glyph unicode="m" horiz-adv-x="1389" d="M-4 678v49q64 52 135.5 95.5t153.5 80.5q9 -4 17 -9.5t17 -14.5q2 -30 2.5 -56.5t0.5 -56.5v-51.5t-2 -54.5l2 1q299 193 436 238q9 -3 16 -8t17 -17q-5 -43 -9.5 -96t-9.5 -116q76 65 186 127t236 110q8 -2 15.5 -7.5t17.5 -17.5q-8 -67 -12.5 -119t-6.5 -90l-16 -273 q-1 -21 -1.5 -41t-0.5 -44q0 -104 15 -137t52 -33q34 0 132 62l48 30l1 -61q-63 -55 -130.5 -103t-142.5 -90h-26q-4 0 -17 3q-6 1 -10 2q-35 25 -52.5 67t-17.5 100q0 24 4 84q0 11 1 17l12 231l5 80q5 76 5 86q0 40 -10.5 57t-34.5 17q-35 0 -105.5 -37t-150.5 -100 q-9 -144 -20 -281t-23 -266l-147 -62q24 240 39.5 427.5t15.5 238.5q0 45 -10 62.5t-35 17.5q-29 0 -84 -27.5t-188 -111.5q-10 -141 -20.5 -277t-23.5 -268l-147 -62q11 93 20 197t17 222l10 145q2 32 3 61.5t1 52.5q0 46 -10 66t-33 20q-21 0 -50.5 -12.5t-86.5 -46.5z " />
<glyph unicode="n" horiz-adv-x="954" d="M-4 678v49q64 52 135.5 95.5t153.5 80.5q9 -4 17 -9.5t17 -14.5q2 -30 2.5 -56.5t0.5 -56.5v-51.5t-2 -54.5l2 1q299 193 436 238q9 -3 16 -8t17 -17q-8 -71 -12.5 -122t-6.5 -87l-16 -273q-1 -21 -1.5 -41t-0.5 -44q0 -104 15 -137t52 -33q27 0 68.5 22.5t144.5 96.5 l2 -57q-77 -70 -153 -125t-154 -99h-24q-5 0 -21 3q-5 1 -8 2q-34 25 -51 66t-17 101q0 38 0.5 59t1.5 41l15 233q3 57 5.5 103.5t2.5 61.5q0 40 -10.5 57t-34.5 17q-29 0 -84 -27.5t-188 -111.5q-10 -141 -20.5 -277t-23.5 -268l-147 -62q11 93 20 197t17 222l10 145 q2 31 3 59t1 55q0 42 -9.5 64t-27.5 22q-21 0 -54.5 -13.5t-88.5 -45.5z" />
<glyph unicode="o" horiz-adv-x="858" d="M47 356q0 123 33 218.5t94 152.5q101 93 184.5 136.5t159.5 43.5q133 0 201.5 -92.5t68.5 -271.5q0 -131 -30.5 -228.5t-89.5 -156.5q-97 -94 -182.5 -139.5t-166.5 -45.5q-135 0 -203.5 96.5t-68.5 286.5zM188 408q0 -159 54 -242.5t155 -83.5q122 0 185 101t63 296 q0 160 -48 239t-144 79h-11q-122 0 -188 -101t-66 -288z" />
<glyph unicode="p" horiz-adv-x="922" d="M-51 -612l47 57q40 5 61.5 7t42.5 3q21 236 38 547q5 93 7 127l23 373q0 9 3 36q7 86 7 152q0 23 -9 36t-26 13q-30 0 -118 -48q-14 -8 -23 -13l-2 49q62 49 132.5 92.5t154.5 85.5q12 -6 21 -12t15 -12q2 -15 2.5 -31t0.5 -47q0 -30 -0.5 -43t-1.5 -24l98 57l19 10 q172 98 249 98q86 0 131 -69t45 -199q0 -120 -31 -238t-85 -207q-56 -50 -112 -94.5t-116 -85.5q-37 -11 -63 -15.5t-51 -4.5q-29 0 -63.5 4.5t-73.5 13.5q-10 -125 -15.5 -258.5t-7.5 -285.5q12 -2 35 -5q108 -13 157 -16l-45 -49q-15 -1 -43 -2q-133 -6 -182 -6 q-73 0 -122.5 1t-98.5 3zM283 145q40 -24 82.5 -35.5t91.5 -11.5q75 0 118 27t74 94t49.5 163.5t18.5 197.5q0 88 -32 138t-87 50q-43 0 -90 -15t-105 -48l-86 -52q-18 -215 -25 -319.5t-9 -188.5z" />
<glyph unicode="q" horiz-adv-x="782" d="M51 248q0 145 14.5 243.5t45.5 155.5q28 53 118 133l13 11q75 64 144.5 89t160.5 25q24 0 39 -0.5t29 -0.5q35 43 63.5 75.5t54.5 56.5q-2 -63 -5 -94.5t-7 -56.5l47 -19l-51 -84q-25 -165 -47 -475q-3 -47 -4 -69l-17 -244q-8 -121 -14.5 -251t-11.5 -277q36 -2 83.5 -5 t106.5 -8l-53 -57q-59 -6 -114 -9t-111 -3h-41q-47 0 -94.5 1.5t-110.5 6.5l59 57q20 4 45 7.5t75 8.5l17 213q8 92 17 222t18 282l-125 -90q-5 -4 -19 -14q-77 -58 -148 -96q-8 -3 -12 -3.5t-9 -1.5q-57 0 -106.5 82.5t-49.5 188.5zM209 371q0 -122 22 -176t70 -54 q34 0 222 138l13 9l15 167q3 27 11 185q3 71 5 114q-40 12 -77.5 18t-73.5 6q-122 0 -164.5 -83t-42.5 -324z" />
<glyph unicode="r" horiz-adv-x="666" d="M18 688l13 64l164 92q30 18 62.5 30.5t61.5 18.5l37 -16q1 -4 1 -11q3 -37 3 -53q0 -17 -2 -61q-1 -12 -2 -19q14 12 40 33q158 133 214 133q24 0 50 -7t57 -22q-11 -27 -34 -81.5t-34 -81.5q-35 15 -65 21.5t-60 6.5q-35 0 -76.5 -21.5t-93.5 -66.5q0 -8 -3 -32 q-18 -196 -34 -392l-16 -205l-154 -49q17 150 29 324q1 26 2 37l15 158q5 64 8.5 111t3.5 48q0 34 -13.5 55t-33.5 21q-8 0 -28.5 -4.5t-46.5 -12.5z" />
<glyph unicode="s" horiz-adv-x="678" d="M-23 129l152 127q33 -97 78 -142.5t106 -45.5q55 0 96.5 44t41.5 103q0 48 -32 83.5t-124 86.5l-76 41q-68 39 -93.5 72t-25.5 77q0 110 102.5 221t219.5 111q44 0 84.5 -15t91.5 -50l-106 -154q-45 53 -85 76.5t-83 23.5q-46 0 -74.5 -29.5t-28.5 -76.5q0 -39 31 -73.5 t96 -67.5l72 -37l10 -5q156 -76 156 -182q0 -119 -120.5 -234.5t-254.5 -115.5q-80 0 -138 40.5t-96 121.5z" />
<glyph unicode="t" horiz-adv-x="653" d="M3 695l66 52q41 4 79.5 7t74.5 6l15 239l145 70l-18 -307h51q58 0 107 -2.5t95 -8.5l-72 -57q-50 -2 -158 -8q-17 -1 -26 -2q-6 -111 -14 -226q-1 -19 -2 -26l-4 -80q-1 -17 -1.5 -34t-0.5 -37q0 -63 39.5 -112.5t85.5 -49.5q31 0 80 30q15 9 22 13l97 53v-59l-180 -129 q-22 -16 -50 -29t-67 -25q-6 0 -16 -1t-15 -1q-7 0 -16.5 1.5t-25.5 5.5q-47 23 -76.5 71.5t-29.5 103.5q2 78 6 163t11 182l14 192q-32 0 -65 -1q-10 -1 -13 -1q-24 0 -59 1.5t-79 5.5z" />
<glyph unicode="u" horiz-adv-x="944" d="M2 672v59q87 56 157.5 96t119.5 62q4 1 8 1.5t10 0.5q15 0 22 -6.5t11 -24.5q0 -102 -15 -289q-4 -54 -6 -80l-8 -120q0 -6 -1 -20q-3 -56 -3 -77q0 -70 21 -108.5t59 -38.5q22 0 54.5 14.5t107.5 61.5l67 43q11 133 36 418q10 109 16 166l155 61q-3 -32 -11 -106 q-25 -226 -34 -367l-8 -119q-1 -7 -1 -19q-3 -44 -3 -59q0 -43 17 -69.5t46 -26.5q25 0 90 37q20 12 31 18l88 51l2 -59l-178 -125q-38 -25 -73 -44t-73 -36q-3 -1 -7 -1.5t-13 -0.5q-14 0 -28 6.5t-29 20.5q-20 22 -28.5 45t-8.5 65v50l-124 -79l-24 -15q-109 -69 -170 -87 l-49 9q-37 27 -60.5 71t-23.5 84q0 12 1 32t3 44l23 336q0 4 1 13q3 51 3 73q0 36 -10.5 59t-26.5 23q-22 0 -54.5 -10.5t-78.5 -32.5z" />
<glyph unicode="v" horiz-adv-x="825" d="M-82 678v55q97 76 172 119t109 43q21 0 37.5 -34t31.5 -109l27 -131q4 -20 15 -79q41 -226 81 -411l150 270q39 72 62.5 138.5t23.5 107.5q0 42 -15.5 80.5t-50.5 85.5l174 96q27 -33 39 -62t12 -61q0 -50 -30 -126t-90 -179l-88 -149l-30 -51q-104 -177 -132 -244 l-135 -68q-42 211 -77.5 370t-60.5 247l-14 53q-11 41 -32 61.5t-54 20.5q-6 0 -41 -13l-5 -2z" />
<glyph unicode="w" horiz-adv-x="1413" d="M-43 694v62l291 149l28 -18q12 -78 25 -186t14 -121l25 -218q8 -70 15.5 -126.5t13.5 -88.5l125 246q92 182 142 291t64 162l138 49q16 -195 47 -411q6 -38 8 -52l37 -282l184 256q39 53 62.5 120t23.5 127q0 33 -8 66.5t-21 52.5l-32 55l170 109q33 -49 48 -90t15 -78 q0 -61 -36 -138t-119 -192l-181 -245q-41 -57 -64 -95.5t-38 -74.5q-40 -13 -110 -38l-27 -9q-31 230 -61 450q-4 27 -5 35l-31 205l-321 -648q-33 -11 -113 -45l-10 -4q-12 79 -24 164t-27 199l-29 205q-16 114 -39 156t-65 42q-13 0 -34 -7t-81 -34z" />
<glyph unicode="x" horiz-adv-x="930" d="M-6 -25q0 157 246 383l16 15l98 92l-22 110q-19 97 -43.5 132.5t-67.5 35.5q-31 0 -74 -14.5t-122 -54.5l8 59l59 45q68 51 146 84t120 33q37 0 57 -30.5t40 -137.5l26 -141l207 194q4 4 13 12q70 67 131 101q3 1 7.5 1.5t12.5 0.5q26 0 54 -11.5t71 -41.5l-80 -148 q-33 18 -57.5 26.5t-44.5 8.5q-35 0 -86 -34t-131 -111l-78 -78q33 -208 80 -294.5t125 -86.5q40 0 80 13t83 40l78 49v-71l-168 -111q-57 -37 -95 -50t-77 -13q-82 0 -125.5 49t-85.5 241l-24 113l-60 -53q-80 -71 -127 -176t-47 -213q0 -22 6 -67q3 -22 4 -34l-34 -22 l-117 121q-1 6 -1.5 13.5t-0.5 20.5z" />
<glyph unicode="y" horiz-adv-x="844" d="M-260 -631l57 137h109q55 0 106.5 18t89.5 50q68 57 118 178t50 236q0 49 -13.5 135t-39.5 199l-43 192q-30 134 -57 178.5t-70 44.5q-20 -4 -55 -12l-84 -18v47l215 127q15 9 33.5 15t40.5 9l32 -16q38 -95 82.5 -299.5t85.5 -480.5l154 270q44 78 68 151t24 127 q0 36 -7 68.5t-22 58.5l-20 41l166 107q32 -31 46.5 -65t14.5 -79q0 -79 -103 -251q-38 -63 -59 -99l-143 -254q-63 -109 -148 -278t-110 -215l-47 -88q-76 -139 -154 -190.5t-204 -51.5q-27 0 -100 7q-9 1 -13 1z" />
<glyph unicode="z" horiz-adv-x="782" d="M-43 88v41q58 48 116 103t126 126l100 107q15 16 45 46q119 124 168 191q-6 0 -21 -2q-35 -4 -53 -4q-16 0 -24.5 0.5t-15.5 1.5l-116 15q-13 1 -29 2.5t-17 1.5q-35 0 -59.5 -20.5t-49.5 -69.5l-23 -43l-32 37l24 77q5 14 12 38q45 141 107 141q30 0 94 -13 q35 -7 53 -10l87 -12q46 -7 69.5 -10t32.5 -3q35 0 69.5 13.5t102.5 58.5v-65l-105 -119q-75 -88 -192.5 -212t-149.5 -159l-71 -80q5 1 11.5 1.5t19.5 0.5q32 0 72 -9t100 -32l34 -14q25 -10 67 -29q78 -34 107 -34q44 0 162 99l8 7l2 -63l-73 -78l-17 -18 q-123 -132 -163 -132q-27 0 -96 47q-49 34 -81 51l-41 25q-41 24 -95.5 39.5t-94.5 15.5q-39 0 -80 -13t-90 -42z" />
<glyph unicode="{" horiz-adv-x="1024" d="M176 606v60q165 15 223 74t58 216v213q0 200 81 273.5t298 73.5h10v-51q-142 -2 -194 -55.5t-52 -209.5v-143q0 -226 -61 -308.5t-226 -113.5q165 -31 226 -113.5t61 -308.5v-143q0 -156 51.5 -208.5t194.5 -54.5v-51h-10q-217 0 -298 73.5t-81 272.5v213q0 158 -59 218 t-222 73z" />
<glyph unicode="|" horiz-adv-x="1024" d="M449 -483v2048h126v-2048h-126z" />
<glyph unicode="}" horiz-adv-x="1024" d="M178 -193q143 2 194.5 54.5t51.5 208.5v143q0 226 61 308.5t226 113.5q-165 31 -226 113.5t-61 308.5v143q0 156 -52 209.5t-194 55.5v51h10q216 0 297.5 -74t81.5 -273v-213q0 -157 58 -216t223 -74v-60q-163 -13 -222 -73t-59 -218v-213q0 -198 -81.5 -272t-297.5 -74 h-10v51z" />
<glyph unicode="~" horiz-adv-x="1706" d="M178 461v133q105 73 202 109t185 36q56 0 116.5 -12.5t174.5 -52.5q12 -4 35 -13q164 -59 254 -59q85 0 176 36.5t209 119.5v-131q-101 -72 -197.5 -108t-189.5 -36q-43 0 -90.5 9t-100.5 26q-30 10 -87 31q-202 72 -302 72q-83 0 -173.5 -37.5t-211.5 -122.5z" />
<glyph unicode="&#xa0;" />
<glyph unicode="&#xa1;" horiz-adv-x="569" d="M147 -25l35 207q30 175 46.5 335.5t19.5 303.5q23 19 46.5 32t47.5 21q8 -45 12 -90.5t4 -89.5q0 -106 -7 -231t-21 -252l-17 -150q-33 -30 -74 -51t-92 -35zM180 1120q47 41 74.5 67t48.5 50q39 -21 73.5 -50t63.5 -67q-29 -35 -65.5 -70.5t-81.5 -72.5q-27 36 -55 72 t-58 71z" />
<glyph unicode="&#xa2;" d="M180 340q0 192 85.5 340t234.5 213l8 178l67 29l-10 -199h15q99 0 153 -40.5t57 -117.5l-141 -96q0 72 -24.5 115t-65.5 44q-12 -164 -21.5 -340.5t-15.5 -363.5h10q54 0 111 26.5t148 96.5v-53q-65 -72 -133.5 -116.5t-141.5 -61.5l-1 -13q-7 -109 -7 -161v-37l-74 -33 q7 75 11.5 135t6.5 107h-3q-123 0 -196 94.5t-73 253.5zM324 426q0 -139 33 -217.5t102 -99.5q12 205 20.5 375.5t13.5 322.5q-77 -29 -123 -131.5t-46 -249.5z" />
<glyph unicode="&#xa3;" d="M-10 -51q133 124 186 230.5t53 309.5v158q-31 0 -76 2.5t-112 7.5l61 70q32 0 62.5 1t64.5 3q9 118 40.5 194.5t103.5 151.5q94 98 165 135t156 37q25 0 59.5 -3.5t84.5 -12.5l-70 -135q-61 17 -101 24.5t-69 7.5q-108 0 -151.5 -77t-48.5 -322q76 0 144 -2t132 -6 l-81 -76q-19 -1 -40.5 -1.5t-60.5 -0.5q-21 0 -44.5 0.5t-50.5 1.5l-4 -102q-6 -128 -41 -214t-112 -187q46 7 89 10.5t83 3.5q26 0 60 -2.5t80 -7.5l38 -5q20 -3 38 -4.5t34 -1.5q60 0 102 21.5t74 68.5l106 156l33 -55q-104 -238 -149 -300.5t-93 -62.5q-14 0 -52.5 4.5 t-103.5 14.5l-155 24q-13 2 -39 7q-89 16 -129 16q-38 0 -82 -20.5t-98 -63.5l-64 -49z" />
<glyph unicode="&#xa4;" d="M-4 461l29 65h124q3 34 10.5 75t20.5 95h-145l28 66h138q75 224 222.5 358.5t326.5 134.5q63 0 122 -23.5t103 -68.5l-62 -237l-51 -25v14q0 139 -39 201t-125 62q-113 0 -202.5 -112.5t-135.5 -303.5h451l-33 -66h-432q-7 -41 -12 -85t-6 -84l377 -1l-31 -65h-346 q7 -192 82.5 -301t199.5 -109q76 0 153 36t173 116q2 -10 3 -19.5t1 -17.5q0 -5 -1 -11t-3 -16q-91 -89 -192 -131.5t-226 -42.5q-166 0 -268.5 135.5t-102.5 356.5v4h-151z" />
<glyph unicode="&#xa5;" horiz-adv-x="1186" d="M-4 1024l6 57q82 87 161 129.5t156 42.5q157 0 248.5 -145.5t91.5 -400.5q0 -28 -0.5 -42.5t-1.5 -25.5q96 276 228.5 440t253.5 164q29 0 57 -11t61 -36l-90 -145q-28 16 -55 24t-53 8q-65 0 -131 -66t-133 -198h354l-14 -65h-371q-16 -38 -28.5 -80t-22.5 -90h385 l-13 -66h-389q-13 -83 -18.5 -158.5t-5.5 -152.5v-123q52 0 100 -5t94 -16l-80 -63q-24 1 -119 3.5t-153 2.5q-45 0 -95.5 -0.5t-105.5 -1.5l51 59q47 10 80.5 15t60.5 6q11 105 16 213.5t5 220.5h-430l10 66h418v28q0 26 -1.5 55t-6.5 86l-381 1l10 65h363 q-24 144 -94 221.5t-174 77.5q-43 0 -96.5 -20t-147.5 -74z" />
<glyph unicode="&#xa6;" horiz-adv-x="1024" d="M449 -350v758h126v-758h-126zM449 674v758h126v-758h-126z" />
<glyph unicode="&#xa7;" horiz-adv-x="901" d="M39 -324l110 137l5 -2q205 -116 274 -116q67 0 108.5 43t41.5 112q0 45 -20.5 88t-59.5 80l-279 265q-60 57 -93.5 124.5t-33.5 133.5q0 77 42.5 156t135.5 173q26 161 137 273t240 112q55 0 104.5 -17.5t102.5 -55.5l-90 -140q-70 45 -120.5 64.5t-92.5 19.5 q-68 0 -112 -44t-44 -111q0 -42 26 -92t71 -95l219 -217q46 -46 64 -86.5t18 -95.5q0 -67 -30 -137t-101 -166q19 -33 27.5 -63.5t8.5 -61.5q0 -143 -115 -267t-255 -124q-63 0 -131 26t-158 84zM201 623q0 -54 34.5 -115t96.5 -115l45 -41l21 -18q162 -141 227 -205 q32 37 46.5 72t14.5 73q0 53 -25.5 98t-113.5 124l-105 96q-62 57 -101 107.5t-58 97.5q-42 -38 -62 -81.5t-20 -92.5z" />
<glyph unicode="&#xa8;" horiz-adv-x="1024" d="M358 1120q32 30 66 54.5t72 44.5q12 -38 27 -66.5t34 -50.5q-27 -21 -92 -68l-23 -16q-18 24 -60 75zM637 1126q29 34 59.5 57t67.5 40q12 -19 35.5 -55t33.5 -51l-6 -6q-77 -56 -110 -83q-28 23 -47.5 47t-32.5 51z" />
<glyph unicode="&#xa9;" horiz-adv-x="1683" d="M139 678q0 140 53 268.5t152 229.5q98 99 228 152.5t272 53.5q137 0 266.5 -53.5t226.5 -150.5q98 -97 152.5 -228.5t54.5 -271.5t-53 -268t-154 -230q-98 -100 -225 -152.5t-270 -52.5t-269 52.5t-227 152.5t-154 227t-53 271zM225 678q0 -125 47 -238.5t136 -201.5 q88 -89 198.5 -135t235.5 -46q126 0 236.5 46t197.5 135q88 90 135 203t47 237t-47.5 240.5t-132.5 201.5q-86 87 -200.5 135t-233.5 48q-123 0 -237.5 -48.5t-200.5 -136.5q-88 -89 -134.5 -202.5t-46.5 -237.5zM426 664q0 186 116 312t285 126q74 0 148 -34t82 -34 q27 0 42 14.5t21 47.5h35l2 -314h-41q-34 137 -104 206t-176 69q-123 0 -185.5 -94.5t-62.5 -278.5q0 -189 67 -285t199 -96q86 0 156 43t127 131l34 -24q-58 -105 -143 -157t-199 -52q-167 0 -285 123t-118 297z" />
<glyph unicode="&#xaa;" horiz-adv-x="598" d="M33 797q0 109 24 197.5t64 129.5q49 50 108.5 78.5t112.5 28.5q32 0 80.5 -8.5t109.5 -24.5l-34 -61q-9 -77 -15 -134t-6 -67q0 -3 -1 -16q-3 -50 -3 -97q0 -73 8.5 -100t28.5 -27q10 0 95 58q27 19 44 30v-47l-73 -57q-18 -15 -51 -38.5t-91 -61.5h-8q-15 0 -24.5 3 t-16.5 9q-11 32 -17 65t-8 66q-64 -43 -120.5 -79t-100.5 -60q-2 -1 -6 -2q-13 -2 -18 -2q-3 0 -10 1.5t-11 2.5q-32 21 -46.5 70.5t-14.5 142.5zM145 852q0 -66 18 -112t38 -46q7 0 22 7.5t33 19.5l106 65q3 62 8 127.5t13 149.5l6 63q-24 10 -51.5 14.5t-61.5 4.5 q-38 0 -58.5 -14.5t-35.5 -51.5q-17 -42 -27 -102.5t-10 -124.5z" />
<glyph unicode="&#xab;" horiz-adv-x="909" d="M199 426q59 89 104.5 160t75.5 119l82 133l43 -56l-64 -120q-1 -2 -39 -74.5t-77 -141.5q40 -89 75.5 -178t65.5 -180l-84 -53q-41 110 -86.5 207t-95.5 184zM410 432q64 88 118.5 164.5t83.5 118.5l74 102l35 -43l-84 -156q-18 -31 -84 -137l-18 -30q39 -92 146 -323 l15 -34l-84 -55q-43 86 -93.5 184.5t-108.5 208.5z" />
<glyph unicode="&#xac;" horiz-adv-x="1706" d="M254 741v117h1198v-502h-115v385h-1083z" />
<glyph unicode="&#xad;" horiz-adv-x="668" d="M47 387l53 102h490l-46 -96q-31 -3 -63 -4.5t-78 -1.5h-38h-318z" />
<glyph unicode="&#xae;" horiz-adv-x="1683" d="M139 678q0 140 53 268.5t152 229.5q98 99 228 152.5t272 53.5q138 0 268.5 -54t228.5 -152q97 -97 150 -228t53 -272q0 -137 -55.5 -267.5t-157.5 -232.5q-99 -99 -224.5 -150t-270.5 -51q-137 0 -263 52.5t-227 152.5t-154 227t-53 271zM225 678q0 -127 46.5 -239 t136.5 -201q88 -89 198.5 -135t235.5 -46q126 0 236.5 46t197.5 135q88 90 135 203t47 237t-47.5 241.5t-132.5 200.5q-86 87 -200.5 135t-233.5 48q-122 0 -236 -48t-202 -137t-134.5 -202.5t-46.5 -237.5zM469 291v40q72 3 99.5 24.5t27.5 76.5v516q0 55 -26 76t-101 25 v43h393q147 0 232.5 -54.5t85.5 -146.5q0 -76 -69.5 -124t-217.5 -75q93 -29 142 -77.5t71 -133.5q6 -22 11 -63q13 -88 59 -88q32 0 49.5 34t17.5 99h43v-12q0 -88 -40.5 -133.5t-119.5 -45.5q-46 0 -78.5 17t-48.5 49q-18 40 -21 113.5t-9 95.5q-20 68 -70.5 100.5 t-136.5 32.5h-33v-248q0 -54 26.5 -75.5t98.5 -25.5v-40h-385zM729 719q16 -1 32 -1.5t34 -0.5q112 0 173.5 45.5t61.5 128.5q0 73 -53 117.5t-143 44.5q-52 0 -78.5 -18.5t-26.5 -53.5v-262z" />
<glyph unicode="&#xaf;" horiz-adv-x="1024" d="M346 1039l29 87q70 -3 124 -4.5t93 -1.5q40 0 98 1.5t133 4.5l-30 -87l-126 3.5t-89 1.5q-36 0 -93 -1.5t-139 -3.5z" />
<glyph unicode="&#xb0;" horiz-adv-x="674" d="M55 1171q0 119 82.5 201t200.5 82q117 0 200 -83t83 -200q0 -116 -83.5 -199t-201.5 -83t-199.5 82t-81.5 200zM135 1171q0 -84 59.5 -143t143.5 -59t142.5 59t58.5 143t-58.5 142.5t-142.5 58.5t-143.5 -58.5t-59.5 -142.5z" />
<glyph unicode="&#xb1;" horiz-adv-x="1706" d="M254 41v117h1198v-117h-1198zM254 719v117h541v344h118v-344h539v-117h-539v-344h-118v344h-541z" />
<glyph unicode="&#xb2;" horiz-adv-x="664" d="M-49 500q70 55 126.5 104t98.5 90l86 82q85 79 119.5 137t34.5 117q0 64 -35 101.5t-92 37.5q-54 0 -85.5 -32.5t-31.5 -87.5q0 -17 3 -37t9 -43l-110 -23q-5 18 -7.5 35t-3.5 35q0 81 90 146t197 65q82 0 133.5 -44t51.5 -114q0 -55 -35.5 -110t-153.5 -164l-99 -91 q-4 -4 -39 -38t-67 -62q8 1 19 3.5t16 2.5q8 0 24 -2.5t25 -3.5l123 -24l6 -2q75 -17 101 -17q25 0 47 12.5t53 44.5l53 58l31 -27q-38 -49 -82.5 -96t-97.5 -94q-13 -3 -18.5 -3.5t-10.5 -0.5q-16 0 -54 11.5t-58 16.5l-101 29q-3 1 -8 2q-55 16 -92 16q-38 0 -72 -14 t-72 -45z" />
<glyph unicode="&#xb3;" horiz-adv-x="664" d="M-10 500l51 73q73 -28 121.5 -40.5t85.5 -12.5q100 0 163.5 55.5t63.5 143.5q0 65 -49.5 105t-128.5 40q-22 0 -45.5 -3.5t-52.5 -12.5l-64 -23l-10 29q145 56 211.5 107.5t66.5 105.5q0 38 -28 61t-76 23q-27 0 -61 -10t-109 -43l-12 22q34 25 71.5 48.5t79.5 45.5 q28 9 48 13t36 4q68 0 112 -37.5t44 -95.5q0 -33 -19.5 -64t-56.5 -55l-53 -37q92 -9 144 -52.5t52 -111.5q0 -66 -42 -133t-115 -115q-51 -35 -114.5 -53t-135.5 -18q-54 0 -97.5 10t-80.5 31z" />
<glyph unicode="&#xb4;" horiz-adv-x="1024" d="M500 965q55 97 109.5 179.5t111.5 155.5l88 -26q-68 -84 -130.5 -167t-121.5 -167z" />
<glyph unicode="&#xb5;" horiz-adv-x="1120" d="M-80 -330q0 40 64.5 273.5t105.5 427.5l109 514h147l-104 -492q-6 -30 -9.5 -58.5t-3.5 -53.5q0 -83 42 -129t118 -46q98 0 163.5 68.5t94.5 200.5l111 510h149l-114 -531q-13 -59 -17 -87.5t-4 -49.5q0 -48 26 -78t66 -30q35 0 65.5 18t51.5 51t41 93.5t39 60.5 q12 0 19 -10t7 -27q0 -25 -11 -66.5t-29 -83.5q-38 -82 -95 -122.5t-135 -40.5q-68 0 -108.5 51t-40.5 139v23q-46 -110 -116 -164t-165 -54q-96 0 -152.5 54.5t-70.5 161.5q-27 -136 -52 -339q-34 -272 -112 -272q-37 0 -58.5 23.5t-21.5 64.5z" />
<glyph unicode="&#xb6;" horiz-adv-x="1024" d="M76 1130q0 157 107.5 253t285.5 96h479v-78h-125v-1401h-94v1401h-182v-1401h-96v782q-173 8 -274 102.5t-101 245.5z" />
<glyph unicode="&#xb7;" horiz-adv-x="502" d="M119 616l141 136q34 -28 64.5 -62.5t58.5 -79.5l-47 -49q-5 -6 -31 -28.5t-65 -53.5q-40 26 -69.5 60t-51.5 77z" />
<glyph unicode="&#xb8;" horiz-adv-x="1024" d="M193 -373l96 54q30 15 43.5 31.5t13.5 37.5q0 15 -9 33.5t-26 38.5l-24 31l186 159h78l-133 -118l27 -30q13 -15 20.5 -33.5t7.5 -37.5q0 -41 -50 -85.5t-161 -100.5z" />
<glyph unicode="&#xb9;" horiz-adv-x="664" d="M31 477l39 41q43 6 92 9.5t106 5.5q4 45 11.5 137t11.5 127l12 143q0 7 3 69.5t5 118.5q-25 -8 -73 -22t-63 -18l-46 20q50 20 116 48.5t156 68.5h45q-30 -252 -45 -418.5t-16 -273.5l9 -1q156 -12 233 -22l-37 -31q-20 1 -56 1q-151 3 -206 3q-50 0 -123.5 -1.5 t-173.5 -4.5z" />
<glyph unicode="&#xba;" horiz-adv-x="643" d="M35 848q0 84 25 151t71 109q76 65 138.5 95t119.5 30q99 0 151 -65t52 -189q0 -91 -23 -159.5t-67 -110.5q-74 -66 -138 -97.5t-124 -31.5q-102 0 -153.5 67.5t-51.5 200.5zM141 883q0 -110 41 -169t117 -59q90 0 137 71.5t47 207.5q0 111 -35.5 166t-107.5 55h-8 q-92 0 -141.5 -70t-49.5 -202z" />
<glyph unicode="&#xbb;" horiz-adv-x="909" d="M152 104l69 107l20 30q70 108 111 183q-36 88 -69 176.5t-64 177.5l84 56q41 -97 84 -194t90 -198q-84 -120 -184 -258l-4 -6l-90 -123zM360 92l109 150q41 56 98 131q18 23 25 33q-42 78 -83 169t-81 193l96 78q47 -118 95 -225.5t98 -204.5q-86 -105 -139.5 -169.5 t-67.5 -80.5l-100 -117z" />
<glyph unicode="&#xbc;" horiz-adv-x="1608" d="M31 524l37 39q71 7 112 10t76 5q4 46 11.5 130t11.5 116l10 133q1 9 4 69.5t6 105.5q-12 -3 -35 -10q-63 -19 -97 -28l-44 18l24 10q143 59 236 101h43q-28 -226 -42 -384.5t-15 -260.5q40 -4 87.5 -8.5t143.5 -14.5l-35 -29q-22 1 -62 2q-139 2 -190 2q-46 0 -117 -1.5 t-165 -4.5zM238 -217q113 160 221 327t205 332l278 480q80 136 133.5 222t102.5 159h116q-91 -126 -199.5 -294t-224.5 -364l-280 -479q-80 -138 -134 -226.5t-100 -156.5h-118zM956 195q0 29 58 94l4 4l184 209q46 51 93.5 96t90.5 78l41 24h23q-14 -115 -21.5 -182 t-9.5 -88l-8 -72q0 -7 -3.5 -43.5t-4.5 -62.5h211l-70 -59l-145 -1q-3 -33 -4.5 -59t-1.5 -41q0 -26 5.5 -48t16.5 -40l-94 -37l-41 8l20 218h-296q-11 0 -23 0.5t-25 1.5zM1032 252h273l18 162q1 6 3 19q14 96 17 160q-80 -77 -162 -169q-14 -16 -20 -23l-57 -61 q-15 -15 -46 -55q-17 -22 -26 -33z" />
<glyph unicode="&#xbd;" horiz-adv-x="1608" d="M31 524l37 39q71 7 112 10t76 5q4 46 11.5 130t11.5 116l10 133q1 9 4 69.5t6 105.5q-12 -3 -35 -10q-63 -19 -97 -28l-44 18l24 10q143 59 236 101h43q-28 -226 -42 -384.5t-15 -260.5q40 -4 87.5 -8.5t143.5 -14.5l-35 -29q-22 1 -62 2q-139 2 -190 2q-46 0 -117 -1.5 t-165 -4.5zM238 -217q113 160 221 327t205 332l278 480q80 136 133.5 222t102.5 159h116q-91 -126 -199.5 -294t-224.5 -364l-280 -479q-80 -138 -134 -226.5t-100 -156.5h-118zM928 18q61 47 115.5 93t101.5 90l80 75q82 78 114.5 131t32.5 107q0 58 -33.5 93.5t-89.5 35.5 q-50 0 -80 -30t-30 -81q0 -19 9 -63l3 -12l-107 -21q-4 18 -6 34t-2 30q0 77 85 137.5t188 60.5q78 0 127 -41t49 -106q0 -53 -35.5 -105.5t-144.5 -150.5l-95 -84q-3 -3 -36 -35.5t-64 -58.5q3 0 9 1q18 3 26 3q7 0 29 -3q10 -1 16 -1l119 -25q6 -1 20 -4q60 -12 80 -12 q24 0 45.5 12t50.5 43l51 53l27 -24q-36 -48 -78.5 -92.5t-90.5 -85.5q-13 -3 -19.5 -4t-10.5 -1q-16 0 -62 15q-28 8 -44 12l-96 27q-1 0 -5 1q-55 17 -90 17q-36 0 -69.5 -13.5t-69.5 -43.5z" />
<glyph unicode="&#xbe;" horiz-adv-x="1610" d="M-10 545l49 69q72 -27 117.5 -38t81.5 -11q95 0 156 51.5t61 133.5q0 60 -48 98.5t-124 38.5q-22 0 -45 -4t-48 -13l-61 -20l-8 27q137 53 200.5 100.5t63.5 97.5q0 36 -27 57t-73 21q-25 0 -56.5 -9t-105.5 -40l-12 20q32 24 68 45.5t77 42.5q33 9 49.5 12t30.5 3 q66 0 106.5 -34t40.5 -89q0 -31 -18 -60.5t-51 -52.5l-53 -32q89 -10 138.5 -50t49.5 -102q0 -63 -40 -125.5t-110 -108.5q-49 -32 -109.5 -48.5t-129.5 -16.5q-53 0 -94 9t-76 28zM238 -217q113 160 221 327t205 332l278 480q80 136 133.5 222t102.5 159h116 q-91 -126 -199.5 -294t-224.5 -364l-280 -479q-80 -138 -134 -226.5t-100 -156.5h-118zM956 195q0 29 58 94l4 4l184 209q46 51 93.5 96t90.5 78l41 24h23q-14 -115 -21.5 -182t-9.5 -88l-8 -72q0 -7 -3.5 -43.5t-4.5 -62.5h211l-70 -59l-145 -1q-3 -33 -4.5 -59t-1.5 -41 q0 -26 5.5 -48t16.5 -40l-94 -37l-41 8l20 218h-296q-11 0 -23 0.5t-25 1.5zM1032 252h273l18 162q1 6 3 19q14 96 17 160q-80 -77 -162 -169q-14 -16 -20 -23l-57 -61q-15 -15 -46 -55q-17 -22 -26 -33z" />
<glyph unicode="&#xbf;" horiz-adv-x="684" d="M39 164q0 60 27 109.5t110 121.5l137 123l6 5q91 80 91 165q0 55 -49 162l-5 10l131 58q40 -63 59 -114.5t19 -94.5q0 -20 -5 -43.5t-15 -53.5l-68 -51l-32 -24q-252 -193 -252 -308q0 -71 50 -115t132 -44q28 0 60.5 4.5t70.5 13.5l-62 -84q-44 -17 -79.5 -25t-67.5 -8 q-119 0 -188.5 52t-69.5 141zM328 1137q32 35 65 62.5t68 47.5q35 -28 60.5 -58.5t43.5 -66.5l-145 -133q-18 31 -49.5 80t-42.5 68z" />
<glyph unicode="&#xc0;" horiz-adv-x="1247" d="M-166 0l73 65q30 2 69 9q8 1 12 2l100.5 164.5t192.5 330.5l327 596q20 33 61 48q3 1 5 2l71 24q48 -187 81.5 -309.5t56.5 -192.5l143 -458q41 -130 97.5 -175t176.5 -45h31l-26 -48q-55 -8 -195 -23l-40 -4l-84 -6q-59 5 -183 430q-20 71 -31 108q-22 -12 -41.5 -18 t-34.5 -6l-256 -13q-5 0 -19 -1q-53 -3 -93 -11q-64 -124 -111 -224.5t-69 -157.5q34 -3 97.5 -10t87.5 -9l-49 -68q-47 1 -102 1.5t-166 0.5q-39 0 -84.5 -0.5t-97.5 -1.5zM381 574q39 -5 86.5 -7t153.5 -2q46 0 76.5 2.5t59.5 7.5q0 5 -9 37q-56 217 -115 453zM537 1626 l86 35q55 -82 106.5 -168.5t98.5 -175.5l-45 -21z" />
<glyph unicode="&#xc1;" horiz-adv-x="1247" d="M-166 0l73 65q30 2 69 9q8 1 12 2l100.5 164.5t192.5 330.5l327 596q20 33 61 48q3 1 5 2l71 24q48 -187 81.5 -309.5t56.5 -192.5l143 -458q41 -130 97.5 -175t176.5 -45h31l-26 -48q-55 -8 -195 -23l-40 -4l-84 -6q-59 5 -183 430q-20 71 -31 108q-22 -12 -41.5 -18 t-34.5 -6l-256 -13q-5 0 -19 -1q-53 -3 -93 -11q-64 -124 -111 -224.5t-69 -157.5q34 -3 97.5 -10t87.5 -9l-49 -68q-47 1 -102 1.5t-166 0.5q-39 0 -84.5 -0.5t-97.5 -1.5zM381 574q39 -5 86.5 -7t153.5 -2q46 0 76.5 2.5t59.5 7.5q0 5 -9 37q-56 217 -115 453zM658 1315 q55 97 109.5 179.5t111.5 155.5l88 -26q-68 -84 -130.5 -167t-121.5 -167z" />
<glyph unicode="&#xc2;" horiz-adv-x="1247" d="M-166 0l73 65q30 2 69 9q8 1 12 2l100.5 164.5t192.5 330.5l327 596q20 33 61 48q3 1 5 2l71 24q48 -187 81.5 -309.5t56.5 -192.5l143 -458q41 -130 97.5 -175t176.5 -45h31l-26 -48q-55 -8 -195 -23l-40 -4l-84 -6q-59 5 -183 430q-20 71 -31 108q-22 -12 -41.5 -18 t-34.5 -6l-256 -13q-5 0 -19 -1q-53 -3 -93 -11q-64 -124 -111 -224.5t-69 -157.5q34 -3 97.5 -10t87.5 -9l-49 -68q-47 1 -102 1.5t-166 0.5q-39 0 -84.5 -0.5t-97.5 -1.5zM381 574q39 -5 86.5 -7t153.5 -2q46 0 76.5 2.5t59.5 7.5q0 5 -9 37q-56 217 -115 453zM500 1331 q67 72 117 133l2 2l125 154q7 7 21 17t32 20l47 -13q37 -107 86 -285l8 -30l-65 -41q-26 74 -50.5 134t-46.5 102q-61 -60 -119 -117.5t-118 -118.5z" />
<glyph unicode="&#xc3;" horiz-adv-x="1247" d="M-166 0l73 65q30 2 69 9q8 1 12 2l100.5 164.5t192.5 330.5l327 596q20 33 61 48q3 1 5 2l71 24q48 -187 81.5 -309.5t56.5 -192.5l143 -458q41 -130 97.5 -175t176.5 -45h31l-26 -48q-55 -8 -195 -23l-40 -4l-84 -6q-59 5 -183 430q-20 71 -31 108q-22 -12 -41.5 -18 t-34.5 -6l-256 -13q-5 0 -19 -1q-53 -3 -93 -11q-64 -124 -111 -224.5t-69 -157.5q34 -3 97.5 -10t87.5 -9l-49 -68q-47 1 -102 1.5t-166 0.5q-39 0 -84.5 -0.5t-97.5 -1.5zM381 574q39 -5 86.5 -7t153.5 -2q46 0 76.5 2.5t59.5 7.5q0 5 -9 37q-56 217 -115 453zM457 1411 l86 80q26 24 53.5 36.5t55.5 12.5q16 0 31.5 -2.5t31.5 -7.5l113 -35q37 -11 50 -14t19 -3q22 0 44.5 10.5t43.5 30.5l45 43l29 -28l-76 -86q-30 -34 -53.5 -49t-44.5 -15q-13 0 -37 5t-51 14l-111 34q-18 6 -34.5 9.5t-24.5 3.5q-18 0 -37 -7.5t-43 -23.5l-59 -37z" />
<glyph unicode="&#xc4;" horiz-adv-x="1247" d="M-166 0l73 65q30 2 69 9q8 1 12 2l100.5 164.5t192.5 330.5l327 596q20 33 61 48q3 1 5 2l71 24q48 -187 81.5 -309.5t56.5 -192.5l143 -458q41 -130 97.5 -175t176.5 -45h31l-26 -48q-55 -8 -195 -23l-40 -4l-84 -6q-59 5 -183 430q-20 71 -31 108q-22 -12 -41.5 -18 t-34.5 -6l-256 -13q-5 0 -19 -1q-53 -3 -93 -11q-64 -124 -111 -224.5t-69 -157.5q34 -3 97.5 -10t87.5 -9l-49 -68q-47 1 -102 1.5t-166 0.5q-39 0 -84.5 -0.5t-97.5 -1.5zM381 574q39 -5 86.5 -7t153.5 -2q46 0 76.5 2.5t59.5 7.5q0 5 -9 37q-56 217 -115 453zM516 1470 q32 30 66 54.5t72 44.5q12 -38 27 -66.5t34 -50.5q-27 -21 -92 -68l-23 -16q-18 24 -60 75zM795 1476q29 34 59.5 57t67.5 40q12 -19 35.5 -55t33.5 -51l-6 -6q-77 -56 -110 -83q-28 23 -47.5 47t-32.5 51z" />
<glyph unicode="&#xc5;" horiz-adv-x="1247" d="M-166 0l73 63q25 3 52.5 8t28.5 5l100.5 164.5t192.5 330.5l327 596q20 33 61 48q3 1 5 2l71 24q48 -187 81.5 -309.5t56.5 -192.5l143 -458q41 -130 97.5 -175t176.5 -45h31l-26 -48q-55 -8 -195 -23l-40 -4l-84 -6q-59 5 -183 430q-20 71 -31 108q-22 -12 -41.5 -18 t-34.5 -6l-256 -13q-5 0 -19 -1q-53 -3 -93 -11q-64 -124 -111 -224.5t-69 -157.5q39 -4 83 -9t102 -14l-49 -64q-47 1 -102 1.5t-166 0.5q-39 0 -84.5 -0.5t-97.5 -1.5zM381 574q39 -5 86.5 -7t153.5 -2q46 0 76.5 2.5t59.5 7.5q0 5 -9 37q-56 217 -115 453zM537 1438 q0 85 65.5 140.5t151.5 55.5q53 0 82.5 -32t29.5 -91q0 -95 -62 -153t-153 -58q-56 0 -85 35t-29 103zM618 1458q0 -47 19 -71.5t55 -24.5q46 0 69 30t23 89q0 44 -19 67t-56 23q-42 0 -66.5 -30.5t-24.5 -82.5z" />
<glyph unicode="&#xc6;" horiz-adv-x="1669" d="M-98 70q0 30 198 305t575 770q-54 3 -111 12t-118 25l72 45q79 -2 156.5 -3t179.5 -1h64q18 0 158.5 3t264.5 3h82l39 -99l-108 -110q-44 75 -94.5 102t-176.5 27q-41 0 -81 -3t-82 -9q-10 -109 -18 -222.5t-15 -242.5l405 -15l-51 -61l-362 -14q-11 -114 -17.5 -235.5 t-9.5 -253.5q31 -6 65.5 -8.5t77.5 -2.5h187q140 0 226.5 64.5t186.5 259.5l43 -27q-27 -81 -64 -169t-95 -210h-977l51 72l20 2q87 8 111 12q9 95 19.5 218t23.5 278q-96 0 -188 -2t-183 -7l-172 -270q-45 -73 -60 -108.5t-15 -61.5q0 -23 8 -49.5t26 -58.5l-200 -25 q-7 10 -19 27q-22 33 -22 43zM422 668q40 -2 79.5 -3t94.5 -1q51 0 81 0.5t58 1.5q11 130 20 253t17 238q-127 -174 -208 -287.5t-142 -201.5z" />
<glyph unicode="&#xc7;" horiz-adv-x="1180" d="M61 473q0 150 54 294.5t149 250.5q101 113 236 175t280 62q90 0 169 -25.5t149 -78.5l-68 -254l-51 -25v15q0 134 -75.5 212.5t-203.5 78.5q-191 0 -320.5 -178t-129.5 -453q0 -230 107.5 -362t293.5 -132q93 0 201 41.5t235 126.5q1 -3 4 -16t3 -19q0 -1 -2.5 -10.5 t-4.5 -18.5q-116 -92 -255 -141t-285 -49q-223 0 -354.5 137t-131.5 369zM347 -373l96 54q30 15 43.5 31.5t13.5 37.5q0 15 -9 33.5t-26 38.5l-24 31l186 159h78l-133 -118l27 -30q13 -15 20.5 -33.5t7.5 -37.5q0 -41 -50 -85.5t-161 -100.5z" />
<glyph unicode="&#xc8;" horiz-adv-x="1161" d="M-8 0l51 72q19 2 65 6t66 8q15 160 24.5 281t16.5 223l8 129q10 126 14.5 218.5t4.5 172.5l-1 37q-45 7 -93.5 12t-103.5 8l56 56h111h139q88 0 237 2.5t324 7.5l41 -103l-108 -110q-44 75 -94.5 102t-176.5 27q-41 0 -81 -3t-82 -9q-14 -156 -22 -264.5t-13 -196.5 q17 -9 36.5 -13t57.5 -4h317l-57 -67l-280 -12q-26 -2 -46.5 -5.5t-35.5 -9.5q-9 -101 -15.5 -217.5t-11.5 -254.5q31 -6 66 -8.5t79 -2.5h187q140 0 226.5 64.5t186.5 259.5l43 -27q-27 -81 -64 -169t-95 -210h-977zM475 1626l86 35q55 -82 106.5 -168.5t98.5 -175.5 l-45 -21z" />
<glyph unicode="&#xc9;" horiz-adv-x="1161" d="M-8 0l51 72q19 2 65 6t66 8q15 160 24.5 281t16.5 223l8 129q10 126 14.5 218.5t4.5 172.5l-1 37q-45 7 -93.5 12t-103.5 8l56 56h111h139q88 0 237 2.5t324 7.5l41 -103l-108 -110q-44 75 -94.5 102t-176.5 27q-41 0 -81 -3t-82 -9q-14 -156 -22 -264.5t-13 -196.5 q17 -9 36.5 -13t57.5 -4h317l-57 -67l-280 -12q-26 -2 -46.5 -5.5t-35.5 -9.5q-9 -101 -15.5 -217.5t-11.5 -254.5q31 -6 66 -8.5t79 -2.5h187q140 0 226.5 64.5t186.5 259.5l43 -27q-27 -81 -64 -169t-95 -210h-977zM596 1315q55 97 109.5 179.5t111.5 155.5l88 -26 q-68 -84 -130.5 -167t-121.5 -167z" />
<glyph unicode="&#xca;" horiz-adv-x="1161" d="M-8 0l51 72q19 2 65 6t66 8q15 160 24.5 281t16.5 223l8 129q10 126 14.5 218.5t4.5 172.5l-1 37q-45 7 -93.5 12t-103.5 8l56 56h111h139q88 0 237 2.5t324 7.5l41 -103l-108 -110q-44 75 -94.5 102t-176.5 27q-41 0 -81 -3t-82 -9q-14 -156 -22 -264.5t-13 -196.5 q17 -9 36.5 -13t57.5 -4h317l-57 -67l-280 -12q-26 -2 -46.5 -5.5t-35.5 -9.5q-9 -101 -15.5 -217.5t-11.5 -254.5q31 -6 66 -8.5t79 -2.5h187q140 0 226.5 64.5t186.5 259.5l43 -27q-27 -81 -64 -169t-95 -210h-977zM438 1331q67 72 117 133l2 2l125 154q7 7 21 17t32 20 l47 -13q37 -107 86 -285l8 -30l-65 -41q-26 74 -50.5 134t-46.5 102q-61 -60 -119 -117.5t-118 -118.5z" />
<glyph unicode="&#xcb;" horiz-adv-x="1161" d="M-8 0l51 72q19 2 65 6t66 8q15 160 24.5 281t16.5 223l8 129q10 126 14.5 218.5t4.5 172.5l-1 37q-45 7 -93.5 12t-103.5 8l56 56h111h139q88 0 237 2.5t324 7.5l41 -103l-108 -110q-44 75 -94.5 102t-176.5 27q-41 0 -81 -3t-82 -9q-14 -156 -22 -264.5t-13 -196.5 q17 -9 36.5 -13t57.5 -4h317l-57 -67l-280 -12q-26 -2 -46.5 -5.5t-35.5 -9.5q-9 -101 -15.5 -217.5t-11.5 -254.5q31 -6 66 -8.5t79 -2.5h187q140 0 226.5 64.5t186.5 259.5l43 -27q-27 -81 -64 -169t-95 -210h-977zM454 1470q32 30 66 54.5t72 44.5q12 -38 27 -66.5 t34 -50.5q-27 -21 -92 -68l-23 -16q-18 24 -60 75zM733 1476q29 34 59.5 57t67.5 40q12 -19 35.5 -55t33.5 -51l-6 -6q-77 -56 -110 -83q-28 23 -47.5 47t-32.5 51z" />
<glyph unicode="&#xcc;" horiz-adv-x="578" d="M-47 0l79 69q45 6 130 14l12 1q14 131 24.5 258.5t18.5 247.5l8 129q12 172 15.5 246.5t3.5 130.5v51q-28 4 -60.5 9t-95.5 15l61 51q56 0 107.5 -0.5t105.5 -0.5q76 0 138 0.5t126 0.5l-53 -55q-45 -10 -83 -15t-72 -5q-29 -298 -46.5 -562.5t-24.5 -500.5 q46 -2 98.5 -7.5t113.5 -15.5l-64 -61q-62 1 -119 1.5t-120 0.5q-86 0 -157.5 -0.5t-145.5 -1.5zM184 1626l86 35q55 -82 106.5 -168.5t98.5 -175.5l-45 -21z" />
<glyph unicode="&#xcd;" horiz-adv-x="578" d="M-47 0l79 69q45 6 130 14l12 1q14 131 24.5 258.5t18.5 247.5l8 129q12 172 15.5 246.5t3.5 130.5v51q-28 4 -60.5 9t-95.5 15l61 51q56 0 107.5 -0.5t105.5 -0.5q76 0 138 0.5t126 0.5l-53 -55q-45 -10 -83 -15t-72 -5q-29 -298 -46.5 -562.5t-24.5 -500.5 q46 -2 98.5 -7.5t113.5 -15.5l-64 -61q-62 1 -119 1.5t-120 0.5q-86 0 -157.5 -0.5t-145.5 -1.5zM305 1315q55 97 109.5 179.5t111.5 155.5l88 -26q-68 -84 -130.5 -167t-121.5 -167z" />
<glyph unicode="&#xce;" horiz-adv-x="578" d="M-47 0l79 69q45 6 130 14l12 1q14 131 24.5 258.5t18.5 247.5l8 129q12 172 15.5 246.5t3.5 130.5v51q-28 4 -60.5 9t-95.5 15l61 51q56 0 107.5 -0.5t105.5 -0.5q76 0 138 0.5t126 0.5l-53 -55q-45 -10 -83 -15t-72 -5q-29 -298 -46.5 -562.5t-24.5 -500.5 q46 -2 98.5 -7.5t113.5 -15.5l-64 -61q-62 1 -119 1.5t-120 0.5q-86 0 -157.5 -0.5t-145.5 -1.5zM147 1331q67 72 117 133l2 2l125 154q7 7 21 17t32 20l47 -13q37 -107 86 -285l8 -30l-65 -41q-26 74 -50.5 134t-46.5 102q-61 -60 -119 -117.5t-118 -118.5z" />
<glyph unicode="&#xcf;" horiz-adv-x="578" d="M-47 0l79 69q45 6 130 14l12 1q14 131 24.5 258.5t18.5 247.5l8 129q12 172 15.5 246.5t3.5 130.5v51q-28 4 -60.5 9t-95.5 15l61 51q56 0 107.5 -0.5t105.5 -0.5q76 0 138 0.5t126 0.5l-53 -55q-45 -10 -83 -15t-72 -5q-29 -298 -46.5 -562.5t-24.5 -500.5 q46 -2 98.5 -7.5t113.5 -15.5l-64 -61q-62 1 -119 1.5t-120 0.5q-86 0 -157.5 -0.5t-145.5 -1.5zM163 1470q32 30 66 54.5t72 44.5q12 -38 27 -66.5t34 -50.5q-27 -21 -92 -68l-23 -16q-18 24 -60 75zM442 1476q29 34 59.5 57t67.5 40q12 -19 35.5 -55t33.5 -51l-6 -6 q-77 -56 -110 -83q-28 23 -47.5 47t-32.5 51z" />
<glyph unicode="&#xd0;" horiz-adv-x="1403" d="M-20 0l71 61q22 5 49 8.5t82 8.5q11 106 22 237t23 301h-221l10 70h215q11 110 16 202t5 173q0 15 -1 45t-1 44q-48 4 -112 9t-81 6l64 56h196q89 0 209.5 3t153.5 3q360 0 506.5 -113.5t146.5 -380.5q0 -155 -42.5 -285.5t-125.5 -228.5q-99 -119 -234 -170t-364 -51 q-57 0 -179.5 2t-188.5 2q-58 0 -111 -0.5t-108 -1.5zM352 87l25 -3q230 -21 303 -21q229 0 352 163t123 466q0 240 -124.5 355.5t-381.5 115.5q-31 0 -87.5 -3t-137.5 -9q-14 -119 -25 -235t-20 -229l430 -1l-10 -70h-422q-9 -135 -15.5 -267.5t-9.5 -261.5z" />
<glyph unicode="&#xd1;" horiz-adv-x="1417" d="M5 0l44 59q19 5 61.5 13.5t65.5 13.5q19 205 35 431l6 72l33 464q-12 18 -26 42t-31 53q-29 6 -85 15t-75 13l50 40q47 4 88.5 5.5t82.5 1.5h149q6 -58 39.5 -129.5t85.5 -137.5l410 -512q36 -45 77 -101.5t85 -119.5l22 665q1 27 1.5 54t0.5 64q0 45 -3 129l-1 6 q-47 1 -96 9.5t-96 23.5l73 49q53 -2 104 -3t116 -1q62 0 114.5 1t108.5 3l-68 -68q-42 -8 -72 -11t-57 -3q-6 -52 -10 -95.5t-6 -82.5l-23 -289q-15 -195 -24 -352.5t-13 -278.5l-114 -78q-42 76 -93 153t-112 156l-387 500q-7 9 -58.5 74.5t-87.5 109.5 q-6 -113 -10.5 -214.5t-7.5 -195.5l-4 -188q-1 -42 -1.5 -81t-0.5 -72q0 -47 0.5 -73t1.5 -48q16 -3 49 -10q93 -19 141 -27l-53 -49q-54 1 -103.5 1.5t-97.5 0.5q-71 0 -123.5 -0.5t-104.5 -1.5zM483 1411l86 80q26 24 53.5 36.5t55.5 12.5q16 0 31.5 -2.5t31.5 -7.5 l113 -35q37 -11 50 -14t19 -3q22 0 44.5 10.5t43.5 30.5l45 43l29 -28l-76 -86q-30 -34 -53.5 -49t-44.5 -15q-13 0 -37 5t-51 14l-111 34q-18 6 -34.5 9.5t-24.5 3.5q-18 0 -37 -7.5t-43 -23.5l-59 -37z" />
<glyph unicode="&#xd2;" horiz-adv-x="1380" d="M70 512q0 154 49 285.5t143 230.5q99 103 249.5 165t303.5 62q232 0 363 -142.5t131 -395.5q0 -156 -50.5 -292t-144.5 -232q-100 -104 -247.5 -165t-299.5 -61q-235 0 -366 143.5t-131 401.5zM250 565q0 -242 109 -381t298 -139q209 0 341 169t132 441q0 246 -106 385.5 t-291 139.5q-218 0 -350.5 -167.5t-132.5 -447.5zM543 1626l86 35q55 -82 106.5 -168.5t98.5 -175.5l-45 -21z" />
<glyph unicode="&#xd3;" horiz-adv-x="1380" d="M70 512q0 154 49 285.5t143 230.5q99 103 249.5 165t303.5 62q232 0 363 -142.5t131 -395.5q0 -156 -50.5 -292t-144.5 -232q-100 -104 -247.5 -165t-299.5 -61q-235 0 -366 143.5t-131 401.5zM250 565q0 -242 109 -381t298 -139q209 0 341 169t132 441q0 246 -106 385.5 t-291 139.5q-218 0 -350.5 -167.5t-132.5 -447.5zM664 1315q55 97 109.5 179.5t111.5 155.5l88 -26q-68 -84 -130.5 -167t-121.5 -167z" />
<glyph unicode="&#xd4;" horiz-adv-x="1380" d="M70 512q0 154 49 285.5t143 230.5q99 103 249.5 165t303.5 62q232 0 363 -142.5t131 -395.5q0 -156 -50.5 -292t-144.5 -232q-100 -104 -247.5 -165t-299.5 -61q-235 0 -366 143.5t-131 401.5zM250 565q0 -242 109 -381t298 -139q209 0 341 169t132 441q0 246 -106 385.5 t-291 139.5q-218 0 -350.5 -167.5t-132.5 -447.5zM506 1331q67 72 117 133l2 2l125 154q7 7 21 17t32 20l47 -13q37 -107 86 -285l8 -30l-65 -41q-26 74 -50.5 134t-46.5 102q-61 -60 -119 -117.5t-118 -118.5z" />
<glyph unicode="&#xd5;" horiz-adv-x="1380" d="M70 512q0 154 49 285.5t143 230.5q99 103 249.5 165t303.5 62q232 0 363 -142.5t131 -395.5q0 -156 -50.5 -292t-144.5 -232q-100 -104 -247.5 -165t-299.5 -61q-235 0 -366 143.5t-131 401.5zM250 565q0 -242 109 -381t298 -139q209 0 341 169t132 441q0 246 -106 385.5 t-291 139.5q-218 0 -350.5 -167.5t-132.5 -447.5zM463 1411l86 80q26 24 53.5 36.5t55.5 12.5q16 0 31.5 -2.5t31.5 -7.5l113 -35q37 -11 50 -14t19 -3q22 0 44.5 10.5t43.5 30.5l45 43l29 -28l-76 -86q-30 -34 -53.5 -49t-44.5 -15q-13 0 -37 5t-51 14l-111 34 q-18 6 -34.5 9.5t-24.5 3.5q-18 0 -37 -7.5t-43 -23.5l-59 -37z" />
<glyph unicode="&#xd6;" horiz-adv-x="1380" d="M70 512q0 154 49 285.5t143 230.5q99 103 249.5 165t303.5 62q232 0 363 -142.5t131 -395.5q0 -156 -50.5 -292t-144.5 -232q-100 -104 -247.5 -165t-299.5 -61q-235 0 -366 143.5t-131 401.5zM250 565q0 -242 109 -381t298 -139q209 0 341 169t132 441q0 246 -106 385.5 t-291 139.5q-218 0 -350.5 -167.5t-132.5 -447.5zM522 1470q32 30 66 54.5t72 44.5q12 -38 27 -66.5t34 -50.5q-27 -21 -92 -68l-23 -16q-18 24 -60 75zM801 1476q29 34 59.5 57t67.5 40q12 -19 35.5 -55t33.5 -51l-6 -6q-77 -56 -110 -83q-28 23 -47.5 47t-32.5 51z" />
<glyph unicode="&#xd7;" horiz-adv-x="1706" d="M301 135l475 475l-475 477l80 82l477 -477l475 477l82 -82l-475 -477l475 -475l-82 -82l-475 475l-477 -475z" />
<glyph unicode="&#xd8;" horiz-adv-x="1380" d="M70 508q0 155 49 287t143 231q100 105 251 167t304 62q49 0 97 -8t98 -24l137 213l45 -109q-32 -37 -58 -71.5t-49 -69.5q104 -56 163 -176.5t59 -278.5q0 -167 -49.5 -303t-145.5 -235q-96 -101 -245 -164.5t-289 -63.5q-64 0 -126.5 11.5t-127.5 35.5 q-47 -75 -81.5 -143.5t-58.5 -132.5l-47 137l117 186q-92 71 -139 184t-47 265zM250 565q0 -110 24 -201t72 -167q139 205 288 433.5t310 483.5q-49 35 -97.5 51.5t-105.5 16.5q-224 0 -357.5 -167t-133.5 -450zM408 135q50 -47 109 -69.5t132 -22.5q217 0 348 167.5 t131 448.5q0 134 -28.5 229.5t-91.5 174.5q-136 -201 -284 -429.5t-316 -498.5z" />
<glyph unicode="&#xd9;" horiz-adv-x="1403" d="M44 1169l58 54q24 -1 67 -2q107 -2 144 -2q107 0 160 0.5t98 3.5l-55 -64l-88 -16l-53 -434q-13 -104 -20 -197t-7 -162q0 -135 51 -198.5t160 -63.5q78 0 184.5 36.5t245.5 111.5q16 201 28 414l1 12l14 237q3 44 4.5 93t1.5 104v49q-43 7 -81.5 15t-73.5 18l67 45 q42 -2 81 -3t89 -1q100 0 150 0.5t92 3.5l-59 -64l-88 -14q-8 -150 -24 -354q-5 -66 -7 -92l-15 -183q-7 -104 -11.5 -186.5t-4.5 -122.5q0 -86 40 -119t150 -33h46l-39 -55q-99 -14 -175.5 -21.5t-121.5 -7.5q-44 0 -59 12.5t-15 43.5v41l4 71q-36 0 -110 -32q-9 -4 -14 -6 l-101 -44l-30 -12q-185 -78 -286 -78q-131 0 -196.5 71.5t-65.5 215.5q0 43 4 116t11 155l24 277q1 16 4 46q19 231 18 301q-38 3 -129 13q-45 5 -68 7zM559 1626l86 35q55 -82 106.5 -168.5t98.5 -175.5l-45 -21z" />
<glyph unicode="&#xda;" horiz-adv-x="1403" d="M44 1169l58 54q24 -1 67 -2q107 -2 144 -2q107 0 160 0.5t98 3.5l-55 -64l-88 -16l-53 -434q-13 -104 -20 -197t-7 -162q0 -135 51 -198.5t160 -63.5q78 0 184.5 36.5t245.5 111.5q16 201 28 414l1 12l14 237q3 44 4.5 93t1.5 104v49q-43 7 -81.5 15t-73.5 18l67 45 q42 -2 81 -3t89 -1q100 0 150 0.5t92 3.5l-59 -64l-88 -14q-8 -150 -24 -354q-5 -66 -7 -92l-15 -183q-7 -104 -11.5 -186.5t-4.5 -122.5q0 -86 40 -119t150 -33h46l-39 -55q-99 -14 -175.5 -21.5t-121.5 -7.5q-44 0 -59 12.5t-15 43.5v41l4 71q-36 0 -110 -32q-9 -4 -14 -6 l-101 -44l-30 -12q-185 -78 -286 -78q-131 0 -196.5 71.5t-65.5 215.5q0 43 4 116t11 155l24 277q1 16 4 46q19 231 18 301q-38 3 -129 13q-45 5 -68 7zM680 1315q55 97 109.5 179.5t111.5 155.5l88 -26q-68 -84 -130.5 -167t-121.5 -167z" />
<glyph unicode="&#xdb;" horiz-adv-x="1403" d="M44 1169l58 54q24 -1 67 -2q107 -2 144 -2q107 0 160 0.5t98 3.5l-55 -64l-88 -16l-53 -434q-13 -104 -20 -197t-7 -162q0 -135 51 -198.5t160 -63.5q78 0 184.5 36.5t245.5 111.5q16 201 28 414l1 12l14 237q3 44 4.5 93t1.5 104v49q-43 7 -81.5 15t-73.5 18l67 45 q42 -2 81 -3t89 -1q100 0 150 0.5t92 3.5l-59 -64l-88 -14q-8 -150 -24 -354q-5 -66 -7 -92l-15 -183q-7 -104 -11.5 -186.5t-4.5 -122.5q0 -86 40 -119t150 -33h46l-39 -55q-99 -14 -175.5 -21.5t-121.5 -7.5q-44 0 -59 12.5t-15 43.5v41l4 71q-36 0 -110 -32q-9 -4 -14 -6 l-101 -44l-30 -12q-185 -78 -286 -78q-131 0 -196.5 71.5t-65.5 215.5q0 43 4 116t11 155l24 277q1 16 4 46q19 231 18 301q-38 3 -129 13q-45 5 -68 7zM522 1331q67 72 117 133l2 2l125 154q7 7 21 17t32 20l47 -13q37 -107 86 -285l8 -30l-65 -41q-26 74 -50.5 134 t-46.5 102q-61 -60 -119 -117.5t-118 -118.5z" />
<glyph unicode="&#xdc;" horiz-adv-x="1403" d="M44 1169l58 54q24 -1 67 -2q107 -2 144 -2q107 0 160 0.5t98 3.5l-55 -64l-88 -16l-53 -434q-13 -104 -20 -197t-7 -162q0 -135 51 -198.5t160 -63.5q78 0 184.5 36.5t245.5 111.5q16 201 28 414l1 12l14 237q3 44 4.5 93t1.5 104v49q-43 7 -81.5 15t-73.5 18l67 45 q42 -2 81 -3t89 -1q100 0 150 0.5t92 3.5l-59 -64l-88 -14q-8 -150 -24 -354q-5 -66 -7 -92l-15 -183q-7 -104 -11.5 -186.5t-4.5 -122.5q0 -86 40 -119t150 -33h46l-39 -55q-99 -14 -175.5 -21.5t-121.5 -7.5q-44 0 -59 12.5t-15 43.5v41l4 71q-36 0 -110 -32q-9 -4 -14 -6 l-101 -44l-30 -12q-185 -78 -286 -78q-131 0 -196.5 71.5t-65.5 215.5q0 43 4 116t11 155l24 277q1 16 4 46q19 231 18 301q-38 3 -129 13q-45 5 -68 7zM538 1470q32 30 66 54.5t72 44.5q12 -38 27 -66.5t34 -50.5q-27 -21 -92 -68l-23 -16q-18 24 -60 75zM817 1476 q29 34 59.5 57t67.5 40q12 -19 35.5 -55t33.5 -51l-6 -6q-77 -56 -110 -83q-28 23 -47.5 47t-32.5 51z" />
<glyph unicode="&#xdd;" horiz-adv-x="1229" d="M-16 1032l4 58q84 87 165 130.5t160 43.5q94 0 177 -63t126 -167q34 -80 45 -302q3 -58 5 -88q97 276 235 442.5t262 166.5q30 0 59 -11t62 -36l-92 -147q-33 18 -59.5 26.5t-51.5 8.5q-144 0 -272.5 -264t-128.5 -623v-125q53 0 102.5 -5t98.5 -16l-80 -63q-58 2 -119 3 t-166 1q-46 0 -97.5 -0.5t-109.5 -1.5l53 63q37 8 73.5 12.5t72.5 6.5q9 110 13.5 179t4.5 95v277q0 217 -85 355t-216 138q-41 0 -93 -19.5t-148 -74.5zM631 1315q55 97 109.5 179.5t111.5 155.5l88 -26q-68 -84 -130.5 -167t-121.5 -167z" />
<glyph unicode="&#xde;" horiz-adv-x="1085" d="M-28 0l63 61q56 8 85 11.5t54 5.5l5 55q28 291 40 457l29 389q3 38 4.5 71.5t1.5 65.5l-1 31q-52 4 -103 10.5t-99 13.5l55 52q32 0 115.5 -2t134.5 -2q79 0 242 3l12 1l-50 -51q-13 -3 -34 -7q-72 -15 -100 -18q-5 -33 -8 -63t-4 -60h155q164 0 224.5 -7.5t99.5 -25.5 q72 -32 109.5 -96.5t37.5 -155.5q0 -193 -147.5 -317.5t-384.5 -124.5h-10l-47 49q184 8 289.5 104.5t105.5 254.5q0 135 -69 196.5t-222 61.5q-34 0 -69.5 -4t-75.5 -13q-9 -73 -16.5 -147t-14.5 -174l-14 -205q-10 -127 -14 -201t-5 -139q51 -3 107 -8t132 -15l-49 -57 q-68 1 -135 1.5t-157 0.5q-72 0 -138 -0.5t-134 -1.5z" />
<glyph unicode="&#xdf;" horiz-adv-x="934" d="M-270 -643l69 143h82q107 0 148.5 25t60.5 98q23 82 38.5 236.5t25.5 388.5l16 381q-27 37 -52 62t-52 42q29 17 57 29t57 20q1 18 1 50q9 334 120 462q78 91 160.5 137t167.5 46q103 0 167 -56t64 -143q0 -51 -27.5 -108.5t-115.5 -176.5l-58 -75l-7 -10 q-60 -78 -60 -105q0 -29 72 -110l7 -8l91 -101l1 -2q118 -132 118 -217q0 -122 -113 -255t-215 -133q-68 0 -115 12.5t-88 39.5l80 149q52 -26 95 -38.5t79 -12.5q67 0 109.5 39.5t42.5 99.5q0 62 -99 178l-4 5l-67 79q-15 17 -43 48q-88 97 -88 159q0 47 79 140 q34 40 54 65l59 78q37 47 59.5 102t22.5 97q0 70 -45.5 116.5t-114.5 46.5q-110 0 -166 -94t-67 -305l-37 -676q-2 -31 -4 -89q-23 -479 -158 -675q-71 -104 -140.5 -144t-176.5 -40h-90z" />
<glyph unicode="&#xe0;" horiz-adv-x="797" d="M43 285q0 156 32.5 282t86.5 185q63 69 142 110t151 41q42 0 106 -11t150 -34l-47 -88q-13 -115 -20 -194.5t-7 -94.5q0 -2 -1 -18q-5 -72 -5 -141q0 -105 11 -143t38 -38q14 0 142 93l44 32v-67l-98 -82q-32 -27 -80.5 -63.5t-109.5 -80.5h-11q-16 0 -28.5 4t-23.5 12 q-16 46 -24 92t-10 97q-99 -71 -173.5 -120.5t-122.5 -77.5q-9 -3 -17.5 -5t-13.5 -2q-4 0 -10 1.5t-20 5.5q-43 30 -62 100.5t-19 204.5zM193 362q0 -93 24 -159t51 -66q9 0 28.5 10t45.5 27l141 94q4 90 10.5 184.5t16.5 211.5l8 91q-36 14 -72.5 20.5t-76.5 6.5 q-52 0 -80 -20.5t-47 -73.5q-23 -64 -36 -150t-13 -176zM275 1276l86 35q55 -82 106.5 -168.5t98.5 -175.5l-45 -21z" />
<glyph unicode="&#xe1;" horiz-adv-x="797" d="M43 285q0 156 32.5 282t86.5 185q63 69 142 110t151 41q42 0 106 -11t150 -34l-47 -88q-13 -115 -20 -194.5t-7 -94.5q0 -2 -1 -18q-5 -72 -5 -141q0 -105 11 -143t38 -38q14 0 142 93l44 32v-67l-98 -82q-32 -27 -80.5 -63.5t-109.5 -80.5h-11q-16 0 -28.5 4t-23.5 12 q-16 46 -24 92t-10 97q-99 -71 -173.5 -120.5t-122.5 -77.5q-9 -3 -17.5 -5t-13.5 -2q-4 0 -10 1.5t-20 5.5q-43 30 -62 100.5t-19 204.5zM193 362q0 -93 24 -159t51 -66q9 0 28.5 10t45.5 27l141 94q4 90 10.5 184.5t16.5 211.5l8 91q-36 14 -72.5 20.5t-76.5 6.5 q-52 0 -80 -20.5t-47 -73.5q-23 -64 -36 -150t-13 -176zM396 965q55 97 109.5 179.5t111.5 155.5l88 -26q-68 -84 -130.5 -167t-121.5 -167z" />
<glyph unicode="&#xe2;" horiz-adv-x="797" d="M43 285q0 156 32.5 282t86.5 185q63 69 142 110t151 41q42 0 106 -11t150 -34l-47 -88q-13 -115 -20 -194.5t-7 -94.5q0 -2 -1 -18q-5 -72 -5 -141q0 -105 11 -143t38 -38q14 0 142 93l44 32v-67l-98 -82q-32 -27 -80.5 -63.5t-109.5 -80.5h-11q-16 0 -28.5 4t-23.5 12 q-16 46 -24 92t-10 97q-99 -71 -173.5 -120.5t-122.5 -77.5q-9 -3 -17.5 -5t-13.5 -2q-4 0 -10 1.5t-20 5.5q-43 30 -62 100.5t-19 204.5zM193 362q0 -93 24 -159t51 -66q9 0 28.5 10t45.5 27l141 94q4 90 10.5 184.5t16.5 211.5l8 91q-36 14 -72.5 20.5t-76.5 6.5 q-52 0 -80 -20.5t-47 -73.5q-23 -64 -36 -150t-13 -176zM238 981q67 72 117 133l2 2l125 154q7 7 21 17t32 20l47 -13q37 -107 86 -285l8 -30l-65 -41q-26 74 -50.5 134t-46.5 102q-61 -60 -119 -117.5t-118 -118.5z" />
<glyph unicode="&#xe3;" horiz-adv-x="797" d="M43 285q0 156 32.5 282t86.5 185q63 69 142 110t151 41q42 0 106 -11t150 -34l-47 -88q-13 -115 -20 -194.5t-7 -94.5q0 -2 -1 -18q-5 -72 -5 -141q0 -105 11 -143t38 -38q14 0 142 93l44 32v-67l-98 -82q-32 -27 -80.5 -63.5t-109.5 -80.5h-11q-16 0 -28.5 4t-23.5 12 q-16 46 -24 92t-10 97q-99 -71 -173.5 -120.5t-122.5 -77.5q-9 -3 -17.5 -5t-13.5 -2q-4 0 -10 1.5t-20 5.5q-43 30 -62 100.5t-19 204.5zM193 362q0 -93 24 -159t51 -66q9 0 28.5 10t45.5 27l141 94q4 90 10.5 184.5t16.5 211.5l8 91q-36 14 -72.5 20.5t-76.5 6.5 q-52 0 -80 -20.5t-47 -73.5q-23 -64 -36 -150t-13 -176zM195 1061l86 80q26 24 53.5 36.5t55.5 12.5q16 0 31.5 -2.5t31.5 -7.5l113 -35q37 -11 50 -14t19 -3q22 0 44.5 10.5t43.5 30.5l45 43l29 -28l-76 -86q-30 -34 -53.5 -49t-44.5 -15q-13 0 -37 5t-51 14l-111 34 q-18 6 -34.5 9.5t-24.5 3.5q-18 0 -37 -7.5t-43 -23.5l-59 -37z" />
<glyph unicode="&#xe4;" horiz-adv-x="797" d="M43 285q0 156 32.5 282t86.5 185q63 69 142 110t151 41q42 0 106 -11t150 -34l-47 -88q-13 -115 -20 -194.5t-7 -94.5q0 -2 -1 -18q-5 -72 -5 -141q0 -105 11 -143t38 -38q14 0 142 93l44 32v-67l-98 -82q-32 -27 -80.5 -63.5t-109.5 -80.5h-11q-16 0 -28.5 4t-23.5 12 q-16 46 -24 92t-10 97q-99 -71 -173.5 -120.5t-122.5 -77.5q-9 -3 -17.5 -5t-13.5 -2q-4 0 -10 1.5t-20 5.5q-43 30 -62 100.5t-19 204.5zM193 362q0 -93 24 -159t51 -66q9 0 28.5 10t45.5 27l141 94q4 90 10.5 184.5t16.5 211.5l8 91q-36 14 -72.5 20.5t-76.5 6.5 q-52 0 -80 -20.5t-47 -73.5q-23 -64 -36 -150t-13 -176zM254 1120q32 30 66 54.5t72 44.5q12 -38 27 -66.5t34 -50.5q-27 -21 -92 -68l-23 -16q-18 24 -60 75zM533 1126q29 34 59.5 57t67.5 40q12 -19 35.5 -55t33.5 -51l-6 -6q-77 -56 -110 -83q-28 23 -47.5 47t-32.5 51z " />
<glyph unicode="&#xe5;" horiz-adv-x="797" d="M43 285q0 156 32.5 282t86.5 185q63 69 142 110t151 41q42 0 106 -11t150 -34l-47 -88q-13 -115 -20 -194.5t-7 -94.5q0 -2 -1 -18q-5 -72 -5 -141q0 -105 11 -143t38 -38q14 0 142 93l44 32v-67l-98 -82q-32 -27 -80.5 -63.5t-109.5 -80.5h-11q-16 0 -28.5 4t-23.5 12 q-16 46 -24 92t-10 97q-99 -71 -173.5 -120.5t-122.5 -77.5q-9 -3 -17.5 -5t-13.5 -2q-4 0 -10 1.5t-20 5.5q-43 30 -62 100.5t-19 204.5zM193 362q0 -93 24 -159t51 -66q9 0 28.5 10t45.5 27l141 94q4 90 10.5 184.5t16.5 211.5l8 91q-36 14 -72.5 20.5t-76.5 6.5 q-52 0 -80 -20.5t-47 -73.5q-23 -64 -36 -150t-13 -176zM313 1098q0 85 67 140.5t152 55.5q54 0 83.5 -32t29.5 -91q0 -94 -62 -152t-153 -58q-57 0 -87 35t-30 102zM395 1118q0 -46 20 -71t56 -25q45 0 67.5 29.5t22.5 89.5q0 45 -18.5 67.5t-55.5 22.5q-42 0 -67 -30.5 t-25 -82.5z" />
<glyph unicode="&#xe6;" horiz-adv-x="1176" d="M43 274q0 194 33.5 301t111.5 179q81 73 156.5 111t138.5 38q36 0 66.5 -11t62.5 -36l68 119l43 -2l-21 -162q102 58 150.5 75t89.5 17q70 0 112 -42.5t42 -112.5q0 -136 -310 -315q-77 -45 -120 -71v-6q0 -112 58 -187t140 -75q109 0 321 129l7 4q0 -2 1 -7q3 -17 3 -21 q0 -10 -0.5 -17t-1.5 -14q-132 -105 -233 -153t-187 -48q-111 0 -177.5 58.5t-80.5 169.5q-87 -54 -196.5 -127.5t-134.5 -87.5q-9 -3 -17.5 -5t-13.5 -2q-4 0 -10 1.5t-20 5.5q-43 30 -62 98t-19 196zM188 365q0 -93 26.5 -160.5t53.5 -67.5q8 0 22.5 7.5t51.5 29.5l162 98 q-1 17 -2.5 40t-1.5 28q0 98 17 179.5t50 146.5q-38 63 -77.5 92.5t-86.5 29.5q-97 0 -156 -113.5t-59 -309.5zM668 447q151 89 196 141t45 117q0 41 -22 65.5t-60 24.5q-73 0 -114 -89t-45 -259z" />
<glyph unicode="&#xe7;" horiz-adv-x="711" d="M45 315q0 146 32 260.5t85 163.5q76 71 159.5 118.5t127.5 47.5q53 0 91 -37.5t72 -126.5q-31 -28 -65 -51t-72 -41q-38 86 -59.5 109.5t-50.5 23.5q-78 0 -121 -91.5t-43 -256.5q0 -164 56.5 -254t158.5 -90q45 0 140.5 49t143.5 68v-66q-178 -110 -250 -140t-131 -30 q-133 0 -203.5 88.5t-70.5 255.5zM109 -373l96 54q30 15 43.5 31.5t13.5 37.5q0 15 -9 33.5t-26 38.5l-24 31l186 159h78l-133 -118l27 -30q13 -15 20.5 -33.5t7.5 -37.5q0 -41 -50 -85.5t-161 -100.5z" />
<glyph unicode="&#xe8;" horiz-adv-x="717" d="M57 346q0 139 33.5 243.5t99.5 172.5q62 63 145.5 103t149.5 40q70 0 112 -42t42 -111q0 -136 -309 -315q-78 -45 -121 -70v-7q0 -112 58 -187t141 -75q97 0 278 104q32 18 49 27q1 -2 3.5 -13t2.5 -17q0 -3 -1.5 -13.5t-2.5 -15.5q-109 -94 -218.5 -145.5t-201.5 -51.5 q-135 0 -197.5 89.5t-62.5 283.5zM203 451q133 61 196.5 122.5t63.5 131.5q0 43 -22.5 69.5t-59.5 26.5q-73 0 -125.5 -94.5t-52.5 -241.5v-14zM285 1276l86 35q55 -82 106.5 -168.5t98.5 -175.5l-45 -21z" />
<glyph unicode="&#xe9;" horiz-adv-x="717" d="M57 346q0 139 33.5 243.5t99.5 172.5q62 63 145.5 103t149.5 40q70 0 112 -42t42 -111q0 -136 -309 -315q-78 -45 -121 -70v-7q0 -112 58 -187t141 -75q97 0 278 104q32 18 49 27q1 -2 3.5 -13t2.5 -17q0 -3 -1.5 -13.5t-2.5 -15.5q-109 -94 -218.5 -145.5t-201.5 -51.5 q-135 0 -197.5 89.5t-62.5 283.5zM203 451q133 61 196.5 122.5t63.5 131.5q0 43 -22.5 69.5t-59.5 26.5q-73 0 -125.5 -94.5t-52.5 -241.5v-14zM406 965q55 97 109.5 179.5t111.5 155.5l88 -26q-68 -84 -130.5 -167t-121.5 -167z" />
<glyph unicode="&#xea;" horiz-adv-x="717" d="M57 346q0 139 33.5 243.5t99.5 172.5q62 63 145.5 103t149.5 40q70 0 112 -42t42 -111q0 -136 -309 -315q-78 -45 -121 -70v-7q0 -112 58 -187t141 -75q97 0 278 104q32 18 49 27q1 -2 3.5 -13t2.5 -17q0 -3 -1.5 -13.5t-2.5 -15.5q-109 -94 -218.5 -145.5t-201.5 -51.5 q-135 0 -197.5 89.5t-62.5 283.5zM203 451q133 61 196.5 122.5t63.5 131.5q0 43 -22.5 69.5t-59.5 26.5q-73 0 -125.5 -94.5t-52.5 -241.5v-14zM248 981q67 72 117 133l2 2l125 154q7 7 21 17t32 20l47 -13q37 -107 86 -285l8 -30l-65 -41q-26 74 -50.5 134t-46.5 102 q-61 -60 -119 -117.5t-118 -118.5z" />
<glyph unicode="&#xeb;" horiz-adv-x="717" d="M57 346q0 139 33.5 243.5t99.5 172.5q62 63 145.5 103t149.5 40q70 0 112 -42t42 -111q0 -136 -309 -315q-78 -45 -121 -70v-7q0 -112 58 -187t141 -75q97 0 278 104q32 18 49 27q1 -2 3.5 -13t2.5 -17q0 -3 -1.5 -13.5t-2.5 -15.5q-109 -94 -218.5 -145.5t-201.5 -51.5 q-135 0 -197.5 89.5t-62.5 283.5zM203 451q133 61 196.5 122.5t63.5 131.5q0 43 -22.5 69.5t-59.5 26.5q-73 0 -125.5 -94.5t-52.5 -241.5v-14zM264 1120q32 30 66 54.5t72 44.5q12 -38 27 -66.5t34 -50.5q-27 -21 -92 -68l-23 -16q-18 24 -60 75zM543 1126q29 34 59.5 57 t67.5 40q12 -19 35.5 -55t33.5 -51l-6 -6q-77 -56 -110 -83q-28 23 -47.5 47t-32.5 51z" />
<glyph unicode="&#xec;" horiz-adv-x="516" d="M2 678v61q59 40 132.5 81.5t171.5 88.5q10 -1 18.5 -7.5t15.5 -19.5q-3 -67 -7.5 -144t-10.5 -165l-15 -195q-3 -34 -4.5 -66t-1.5 -62q0 -58 17 -88.5t51 -30.5q24 0 65 20t123 74v-67q-66 -54 -138 -99.5t-153 -83.5h-24q-5 0 -21 3q-5 1 -8 2q-36 22 -55 55t-19 74 q0 26 2 62t6 77l27 282q2 36 3 60.5t1 46.5q0 49 -8.5 71.5t-28.5 22.5q-27 0 -63 -14t-76 -39zM92 1276l86 35q55 -82 106.5 -168.5t98.5 -175.5l-45 -21z" />
<glyph unicode="&#xed;" horiz-adv-x="516" d="M2 678v61q59 40 132.5 81.5t171.5 88.5q10 -1 18.5 -7.5t15.5 -19.5q-3 -67 -7.5 -144t-10.5 -165l-15 -195q-3 -34 -4.5 -66t-1.5 -62q0 -58 17 -88.5t51 -30.5q24 0 65 20t123 74v-67q-66 -54 -138 -99.5t-153 -83.5h-24q-5 0 -21 3q-5 1 -8 2q-36 22 -55 55t-19 74 q0 26 2 62t6 77l27 282q2 36 3 60.5t1 46.5q0 49 -8.5 71.5t-28.5 22.5q-27 0 -63 -14t-76 -39zM213 965q55 97 109.5 179.5t111.5 155.5l88 -26q-68 -84 -130.5 -167t-121.5 -167z" />
<glyph unicode="&#xee;" horiz-adv-x="516" d="M2 678v61q59 40 132.5 81.5t171.5 88.5q10 -1 18.5 -7.5t15.5 -19.5q-3 -67 -7.5 -144t-10.5 -165l-15 -195q-3 -34 -4.5 -66t-1.5 -62q0 -58 17 -88.5t51 -30.5q24 0 65 20t123 74v-67q-66 -54 -138 -99.5t-153 -83.5h-24q-5 0 -21 3q-5 1 -8 2q-36 22 -55 55t-19 74 q0 26 2 62t6 77l27 282q2 36 3 60.5t1 46.5q0 49 -8.5 71.5t-28.5 22.5q-27 0 -63 -14t-76 -39zM55 981q67 72 117 133l2 2l125 154q7 7 21 17t32 20l47 -13q37 -107 86 -285l8 -30l-65 -41q-26 74 -50.5 134t-46.5 102q-61 -60 -119 -117.5t-118 -118.5z" />
<glyph unicode="&#xef;" horiz-adv-x="516" d="M2 678v61q59 40 132.5 81.5t171.5 88.5q10 -1 18.5 -7.5t15.5 -19.5q-3 -67 -7.5 -144t-10.5 -165l-15 -195q-3 -34 -4.5 -66t-1.5 -62q0 -58 17 -88.5t51 -30.5q24 0 65 20t123 74v-67q-66 -54 -138 -99.5t-153 -83.5h-24q-5 0 -21 3q-5 1 -8 2q-36 22 -55 55t-19 74 q0 26 2 62t6 77l27 282q2 36 3 60.5t1 46.5q0 49 -8.5 71.5t-28.5 22.5q-27 0 -63 -14t-76 -39zM71 1120q32 30 66 54.5t72 44.5q12 -38 27 -66.5t34 -50.5q-27 -21 -92 -68l-23 -16q-18 24 -60 75zM350 1126q29 34 59.5 57t67.5 40q12 -19 35.5 -55t33.5 -51l-6 -6 q-77 -56 -110 -83q-28 23 -47.5 47t-32.5 51z" />
<glyph unicode="&#xf0;" horiz-adv-x="858" d="M61 332q0 120 31 210t92 148q94 86 174 128t148 42q20 0 40 -3t40 -9q-13 87 -29 148.5t-37 105.5l-268 -131l-29 63l264 131q-41 79 -87.5 141.5t-100.5 110.5l33 47q72 -46 134.5 -109t117.5 -145l270 133l31 -63l-264 -131q70 -142 107.5 -301t37.5 -313 q0 -142 -28 -235t-87 -150q-92 -91 -173 -135t-156 -44q-128 0 -194.5 91.5t-66.5 269.5zM197 389q0 -155 50.5 -237t145.5 -82q116 0 177 98.5t61 286.5q0 152 -49 228.5t-146 76.5q-115 0 -177 -96t-62 -275z" />
<glyph unicode="&#xf1;" horiz-adv-x="954" d="M-4 678v49q64 52 135.5 95.5t153.5 80.5q9 -4 17 -9.5t17 -14.5q2 -30 2.5 -56.5t0.5 -56.5q0 -26 -0.5 -51.5t-1.5 -54.5l2 1q299 193 436 238q9 -3 16 -8t17 -17q-8 -71 -12.5 -122t-6.5 -87l-16 -273q-1 -21 -1.5 -41t-0.5 -44q0 -104 15 -137t52 -33q27 0 68.5 22.5 t144.5 96.5l2 -57q-77 -70 -153 -125t-154 -99h-24q-5 0 -21 3q-5 1 -8 2q-34 25 -51 66t-17 101q0 38 0.5 59t1.5 41l15 233q3 57 5.5 103.5t2.5 61.5q0 40 -10.5 57t-34.5 17q-29 0 -84 -27.5t-188 -111.5q-10 -141 -20.5 -277t-23.5 -268l-147 -62q11 93 20 197t17 222 l10 145q2 31 3 59t1 55q0 42 -9.5 64t-27.5 22q-21 0 -54.5 -13.5t-88.5 -45.5zM246 1061l86 80q26 24 53.5 36.5t55.5 12.5q16 0 31.5 -2.5t31.5 -7.5l113 -35q37 -11 50 -14t19 -3q22 0 44.5 10.5t43.5 30.5l45 43l29 -28l-76 -86q-30 -34 -53.5 -49t-44.5 -15 q-13 0 -37 5t-51 14l-111 34q-18 6 -34.5 9.5t-24.5 3.5q-18 0 -37 -7.5t-43 -23.5l-59 -37z" />
<glyph unicode="&#xf2;" horiz-adv-x="858" d="M47 356q0 123 33 218.5t94 152.5q101 93 184.5 136.5t159.5 43.5q133 0 201.5 -92.5t68.5 -271.5q0 -131 -30.5 -228.5t-89.5 -156.5q-97 -94 -182.5 -139.5t-166.5 -45.5q-135 0 -203.5 96.5t-68.5 286.5zM188 408q0 -159 54 -242.5t155 -83.5q122 0 185 101t63 296 q0 160 -48 239t-144 79h-11q-122 0 -188 -101t-66 -288zM336 1276l86 35q55 -82 106.5 -168.5t98.5 -175.5l-45 -21z" />
<glyph unicode="&#xf3;" horiz-adv-x="858" d="M47 356q0 123 33 218.5t94 152.5q101 93 184.5 136.5t159.5 43.5q133 0 201.5 -92.5t68.5 -271.5q0 -131 -30.5 -228.5t-89.5 -156.5q-97 -94 -182.5 -139.5t-166.5 -45.5q-135 0 -203.5 96.5t-68.5 286.5zM188 408q0 -159 54 -242.5t155 -83.5q122 0 185 101t63 296 q0 160 -48 239t-144 79h-11q-122 0 -188 -101t-66 -288zM457 965q55 97 109.5 179.5t111.5 155.5l88 -26q-68 -84 -130.5 -167t-121.5 -167z" />
<glyph unicode="&#xf4;" horiz-adv-x="858" d="M47 356q0 123 33 218.5t94 152.5q101 93 184.5 136.5t159.5 43.5q133 0 201.5 -92.5t68.5 -271.5q0 -131 -30.5 -228.5t-89.5 -156.5q-97 -94 -182.5 -139.5t-166.5 -45.5q-135 0 -203.5 96.5t-68.5 286.5zM188 408q0 -159 54 -242.5t155 -83.5q122 0 185 101t63 296 q0 160 -48 239t-144 79h-11q-122 0 -188 -101t-66 -288zM299 981q67 72 117 133l2 2l125 154q7 7 21 17t32 20l47 -13q37 -107 86 -285l8 -30l-65 -41q-26 74 -50.5 134t-46.5 102q-61 -60 -119 -117.5t-118 -118.5z" />
<glyph unicode="&#xf5;" horiz-adv-x="858" d="M47 356q0 123 33 218.5t94 152.5q101 93 184.5 136.5t159.5 43.5q133 0 201.5 -92.5t68.5 -271.5q0 -131 -30.5 -228.5t-89.5 -156.5q-97 -94 -182.5 -139.5t-166.5 -45.5q-135 0 -203.5 96.5t-68.5 286.5zM188 408q0 -159 54 -242.5t155 -83.5q122 0 185 101t63 296 q0 160 -48 239t-144 79h-11q-122 0 -188 -101t-66 -288zM256 1061l86 80q26 24 53.5 36.5t55.5 12.5q16 0 31.5 -2.5t31.5 -7.5l113 -35q37 -11 50 -14t19 -3q22 0 44.5 10.5t43.5 30.5l45 43l29 -28l-76 -86q-30 -34 -53.5 -49t-44.5 -15q-13 0 -37 5t-51 14l-111 34 q-18 6 -34.5 9.5t-24.5 3.5q-18 0 -37 -7.5t-43 -23.5l-59 -37z" />
<glyph unicode="&#xf6;" horiz-adv-x="858" d="M47 356q0 123 33 218.5t94 152.5q101 93 184.5 136.5t159.5 43.5q133 0 201.5 -92.5t68.5 -271.5q0 -131 -30.5 -228.5t-89.5 -156.5q-97 -94 -182.5 -139.5t-166.5 -45.5q-135 0 -203.5 96.5t-68.5 286.5zM188 408q0 -159 54 -242.5t155 -83.5q122 0 185 101t63 296 q0 160 -48 239t-144 79h-11q-122 0 -188 -101t-66 -288zM315 1120q32 30 66 54.5t72 44.5q12 -38 27 -66.5t34 -50.5q-27 -21 -92 -68l-23 -16q-18 24 -60 75zM594 1126q29 34 59.5 57t67.5 40q12 -19 35.5 -55t33.5 -51l-6 -6q-77 -56 -110 -83q-28 23 -47.5 47t-32.5 51z " />
<glyph unicode="&#xf7;" horiz-adv-x="1706" d="M254 553v117h1198v-117h-1198zM739 250q0 48 34 81.5t81 33.5t81 -34t34 -81t-33.5 -81t-81.5 -34t-81.5 33.5t-33.5 81.5zM739 971q0 47 34 80.5t81 33.5q48 0 81.5 -33.5t33.5 -80.5q0 -48 -33.5 -81.5t-81.5 -33.5q-49 0 -82 33.5t-33 81.5z" />
<glyph unicode="&#xf8;" horiz-adv-x="858" d="M16 -98l103 159q-37 55 -54.5 124t-17.5 165q0 151 39 246t133 172q95 77 163 107t140 30q33 0 63 -6.5t60 -19.5l115 180l35 -88q-27 -34 -50.5 -66.5t-44.5 -66.5q46 -48 67 -118t21 -179q0 -130 -30.5 -227t-89.5 -156q-95 -95 -180.5 -141t-168.5 -46q-37 0 -74 10.5 t-75 30.5l-26 -50q-5 -9 -16 -27q-52 -91 -77 -160zM190 412q0 -67 6 -111t19 -82q89 131 176.5 265t173.5 272q-25 25 -53.5 36t-69.5 11q-120 0 -186 -101.5t-66 -289.5zM250 147q31 -37 66.5 -54t80.5 -17q122 0 185 104t63 305q0 63 -8.5 113t-26.5 94 q-95 -136 -185 -272t-175 -273z" />
<glyph unicode="&#xf9;" horiz-adv-x="944" d="M2 672v59q87 56 157.5 96t119.5 62q4 1 8 1.5t10 0.5q15 0 22 -6.5t11 -24.5q0 -102 -15 -289q-4 -54 -6 -80l-8 -120q0 -6 -1 -20q-3 -56 -3 -77q0 -70 21 -108.5t59 -38.5q22 0 54.5 14.5t107.5 61.5l67 43q11 133 36 418q10 109 16 166l155 61q-3 -32 -11 -106 q-25 -226 -34 -367l-8 -119q-1 -7 -1 -19q-3 -44 -3 -59q0 -43 17 -69.5t46 -26.5q25 0 90 37q20 12 31 18l88 51l2 -59l-178 -125q-38 -25 -73 -44t-73 -36q-3 -1 -7 -1.5t-13 -0.5q-14 0 -28 6.5t-29 20.5q-20 22 -28.5 45t-8.5 65v50l-124 -79l-24 -15q-109 -69 -170 -87 l-49 9q-37 27 -60.5 71t-23.5 84q0 12 1 32t3 44l23 336q0 4 1 13q3 51 3 73q0 36 -10.5 59t-26.5 23q-22 0 -54.5 -10.5t-78.5 -32.5zM330 1276l86 35q55 -82 106.5 -168.5t98.5 -175.5l-45 -21z" />
<glyph unicode="&#xfa;" horiz-adv-x="944" d="M2 672v59q87 56 157.5 96t119.5 62q4 1 8 1.5t10 0.5q15 0 22 -6.5t11 -24.5q0 -102 -15 -289q-4 -54 -6 -80l-8 -120q0 -6 -1 -20q-3 -56 -3 -77q0 -70 21 -108.5t59 -38.5q22 0 54.5 14.5t107.5 61.5l67 43q11 133 36 418q10 109 16 166l155 61q-3 -32 -11 -106 q-25 -226 -34 -367l-8 -119q-1 -7 -1 -19q-3 -44 -3 -59q0 -43 17 -69.5t46 -26.5q25 0 90 37q20 12 31 18l88 51l2 -59l-178 -125q-38 -25 -73 -44t-73 -36q-3 -1 -7 -1.5t-13 -0.5q-14 0 -28 6.5t-29 20.5q-20 22 -28.5 45t-8.5 65v50l-124 -79l-24 -15q-109 -69 -170 -87 l-49 9q-37 27 -60.5 71t-23.5 84q0 12 1 32t3 44l23 336q0 4 1 13q3 51 3 73q0 36 -10.5 59t-26.5 23q-22 0 -54.5 -10.5t-78.5 -32.5zM451 965q55 97 109.5 179.5t111.5 155.5l88 -26q-68 -84 -130.5 -167t-121.5 -167z" />
<glyph unicode="&#xfb;" horiz-adv-x="944" d="M2 672v59q87 56 157.5 96t119.5 62q4 1 8 1.5t10 0.5q15 0 22 -6.5t11 -24.5q0 -102 -15 -289q-4 -54 -6 -80l-8 -120q0 -6 -1 -20q-3 -56 -3 -77q0 -70 21 -108.5t59 -38.5q22 0 54.5 14.5t107.5 61.5l67 43q11 133 36 418q10 109 16 166l155 61q-3 -32 -11 -106 q-25 -226 -34 -367l-8 -119q-1 -7 -1 -19q-3 -44 -3 -59q0 -43 17 -69.5t46 -26.5q25 0 90 37q20 12 31 18l88 51l2 -59l-178 -125q-38 -25 -73 -44t-73 -36q-3 -1 -7 -1.5t-13 -0.5q-14 0 -28 6.5t-29 20.5q-20 22 -28.5 45t-8.5 65v50l-124 -79l-24 -15q-109 -69 -170 -87 l-49 9q-37 27 -60.5 71t-23.5 84q0 12 1 32t3 44l23 336q0 4 1 13q3 51 3 73q0 36 -10.5 59t-26.5 23q-22 0 -54.5 -10.5t-78.5 -32.5zM293 981q67 72 117 133l2 2l125 154q7 7 21 17t32 20l47 -13q37 -107 86 -285l8 -30l-65 -41q-26 74 -50.5 134t-46.5 102 q-61 -60 -119 -117.5t-118 -118.5z" />
<glyph unicode="&#xfc;" horiz-adv-x="944" d="M2 672v59q87 56 157.5 96t119.5 62q4 1 8 1.5t10 0.5q15 0 22 -6.5t11 -24.5q0 -102 -15 -289q-4 -54 -6 -80l-8 -120q0 -6 -1 -20q-3 -56 -3 -77q0 -70 21 -108.5t59 -38.5q22 0 54.5 14.5t107.5 61.5l67 43q11 133 36 418q10 109 16 166l155 61q-3 -32 -11 -106 q-25 -226 -34 -367l-8 -119q-1 -7 -1 -19q-3 -44 -3 -59q0 -43 17 -69.5t46 -26.5q25 0 90 37q20 12 31 18l88 51l2 -59l-178 -125q-38 -25 -73 -44t-73 -36q-3 -1 -7 -1.5t-13 -0.5q-14 0 -28 6.5t-29 20.5q-20 22 -28.5 45t-8.5 65v50l-124 -79l-24 -15q-109 -69 -170 -87 l-49 9q-37 27 -60.5 71t-23.5 84q0 12 1 32t3 44l23 336q0 4 1 13q3 51 3 73q0 36 -10.5 59t-26.5 23q-22 0 -54.5 -10.5t-78.5 -32.5zM309 1120q32 30 66 54.5t72 44.5q12 -38 27 -66.5t34 -50.5q-27 -21 -92 -68l-23 -16q-18 24 -60 75zM588 1126q29 34 59.5 57t67.5 40 q12 -19 35.5 -55t33.5 -51l-6 -6q-77 -56 -110 -83q-28 23 -47.5 47t-32.5 51z" />
<glyph unicode="&#xfd;" horiz-adv-x="844" d="M-260 -631l57 137h109q55 0 106.5 18t89.5 50q68 57 118 178t50 236q0 49 -13.5 135t-39.5 199l-43 192q-30 134 -57 178.5t-70 44.5q-20 -4 -55 -12l-84 -18v47l215 127q15 9 33.5 15t40.5 9l32 -16q38 -95 82.5 -299.5t85.5 -480.5l154 270q44 78 68 151t24 127 q0 36 -7 68.5t-22 58.5l-20 41l166 107q32 -31 46.5 -65t14.5 -79q0 -79 -103 -251q-38 -63 -59 -99l-143 -254q-63 -109 -148 -278t-110 -215l-47 -88q-76 -139 -154 -190.5t-204 -51.5q-27 0 -100 7q-9 1 -13 1zM410 965q55 97 109.5 179.5t111.5 155.5l88 -26 q-68 -84 -130.5 -167t-121.5 -167z" />
<glyph unicode="&#xfe;" horiz-adv-x="891" d="M-82 -612l47 57q28 4 54 6.5t50 3.5q18 211 36 522q7 108 10 153l61 933l1 12q7 118 7 176q0 24 -8.5 36.5t-23.5 12.5q-20 0 -47 -10.5t-97 -48.5l-2 47q66 51 138.5 95.5t149.5 82.5q9 -4 15.5 -8.5t20.5 -15.5q0 -16 1 -38.5t1 -29.5q0 -83 -7.5 -213t-31.5 -426 l98 58l19 10q172 98 249 98q86 0 130.5 -68.5t44.5 -199.5q0 -122 -31 -240.5t-84 -204.5q-61 -54 -117.5 -98.5t-110.5 -81.5q-37 -11 -62.5 -15.5t-49.5 -4.5q-25 0 -56.5 4t-82.5 14q-10 -122 -15.5 -255.5t-7.5 -288.5l11 -2q122 -15 182 -19l-45 -49q-69 -4 -127.5 -6 t-98.5 -2q-72 0 -121.5 1t-99.5 3zM252 146q41 -25 83 -36.5t91 -11.5q76 0 118 26.5t74 94.5q31 64 49.5 159t18.5 189q0 97 -31 149t-88 52q-43 0 -89.5 -15t-104.5 -48l-86 -52q-18 -199 -25.5 -309.5t-9.5 -197.5z" />
<glyph unicode="&#xff;" horiz-adv-x="844" d="M-260 -631l57 137h109q55 0 106.5 18t89.5 50q68 57 118 178t50 236q0 49 -13.5 135t-39.5 199l-43 192q-30 134 -57 178.5t-70 44.5q-20 -4 -55 -12l-84 -18v47l215 127q15 9 33.5 15t40.5 9l32 -16q38 -95 82.5 -299.5t85.5 -480.5l154 270q44 78 68 151t24 127 q0 36 -7 68.5t-22 58.5l-20 41l166 107q32 -31 46.5 -65t14.5 -79q0 -79 -103 -251q-38 -63 -59 -99l-143 -254q-63 -109 -148 -278t-110 -215l-47 -88q-76 -139 -154 -190.5t-204 -51.5q-27 0 -100 7q-9 1 -13 1zM268 1120q32 30 66 54.5t72 44.5q12 -38 27 -66.5t34 -50.5 q-27 -21 -92 -68l-23 -16q-18 24 -60 75zM547 1126q29 34 59.5 57t67.5 40q12 -19 35.5 -55t33.5 -51l-6 -6q-77 -56 -110 -83q-28 23 -47.5 47t-32.5 51z" />
<glyph unicode="&#x152;" horiz-adv-x="1864" d="M70 510q0 321 208 534t517 213q56 0 181 -18t193 -18q127 0 240.5 3.5t209.5 10.5l42 -105l-109 -110q-44 75 -94 102t-176 27q-41 0 -81.5 -3t-82.5 -9q-13 -156 -21 -264t-13 -197q30 -8 54 -12.5t40 -4.5h317l-57 -67l-289 -12q-20 -2 -38.5 -5.5t-35.5 -9.5 q-7 -83 -12 -183t-12 -290q31 -5 65.5 -7.5t77.5 -2.5h186q140 0 226.5 64.5t187.5 259.5l43 -27q-30 -87 -68 -179t-90 -200h-653q-114 0 -262.5 -16.5t-188.5 -16.5q-241 0 -373 142.5t-132 400.5zM250 565q0 -240 109.5 -381t293.5 -141q71 0 131.5 23t104.5 67 q15 119 30 348q4 72 7 109l10 141q8 122 11 199t3 137v41q-35 35 -92.5 54.5t-128.5 19.5q-213 0 -346 -169.5t-133 -447.5z" />
<glyph unicode="&#x153;" horiz-adv-x="1294" d="M47 350q0 128 32.5 223.5t94.5 153.5q102 94 185 137t161 43q85 0 144 -40t94 -122q68 72 153.5 117t149.5 45q70 0 113 -44t43 -115q0 -136 -309 -313q-79 -46 -124 -73v-6q0 -112 58.5 -187t140.5 -75q101 0 292 108q25 14 38 21q0 -1 1 -5q3 -15 3 -23t-0.5 -14.5 t-1.5 -14.5q-105 -91 -212 -143t-185 -52q-119 0 -178 40t-85 136q-102 -93 -180 -133.5t-156 -40.5q-134 0 -203 95.5t-69 281.5zM188 408q0 -160 54.5 -246t154.5 -86q121 0 184.5 103.5t63.5 299.5q0 163 -50.5 243.5t-152.5 80.5q-121 0 -187.5 -103t-66.5 -292z M778 446q136 63 199 123.5t63 128.5q0 45 -24 75t-60 30q-72 0 -125 -97t-53 -245v-15z" />
<glyph unicode="&#x178;" horiz-adv-x="1229" d="M-16 1032l4 58q84 87 165 130.5t160 43.5q94 0 177 -63t126 -167q34 -80 45 -302q3 -58 5 -88q97 276 235 442.5t262 166.5q30 0 59 -11t62 -36l-92 -147q-33 18 -59.5 26.5t-51.5 8.5q-144 0 -272.5 -264t-128.5 -623v-125q53 0 102.5 -5t98.5 -16l-80 -63q-58 2 -119 3 t-166 1q-46 0 -97.5 -0.5t-109.5 -1.5l53 63q37 8 73.5 12.5t72.5 6.5q9 110 13.5 179t4.5 95v277q0 217 -85 355t-216 138q-41 0 -93 -19.5t-148 -74.5zM489 1470q32 30 66 54.5t72 44.5q12 -38 27 -66.5t34 -50.5q-27 -21 -92 -68l-23 -16q-18 24 -60 75zM768 1476 q29 34 59.5 57t67.5 40q12 -19 35.5 -55t33.5 -51l-6 -6q-77 -56 -110 -83q-28 23 -47.5 47t-32.5 51z" />
<glyph unicode="&#x2c6;" horiz-adv-x="1024" d="M342 981q67 72 117 133l2 2l125 154q7 7 21 17t32 20l47 -13q37 -107 86 -285l8 -30l-65 -41q-26 74 -50.5 134t-46.5 102q-61 -60 -119 -117.5t-118 -118.5z" />
<glyph unicode="&#x2dc;" horiz-adv-x="1024" d="M299 1061l86 80q26 24 53.5 36.5t55.5 12.5q16 0 31.5 -2.5t31.5 -7.5l113 -35q37 -11 50 -14t19 -3q22 0 44.5 10.5t43.5 30.5l45 43l29 -28l-76 -86q-30 -34 -53.5 -49t-44.5 -15q-13 0 -37 5t-51 14l-111 34q-18 6 -34.5 9.5t-24.5 3.5q-18 0 -37 -7.5t-43 -23.5 l-59 -37z" />
<glyph unicode="&#x2000;" horiz-adv-x="830" />
<glyph unicode="&#x2001;" horiz-adv-x="1661" />
<glyph unicode="&#x2002;" horiz-adv-x="830" />
<glyph unicode="&#x2003;" horiz-adv-x="1661" />
<glyph unicode="&#x2004;" horiz-adv-x="553" />
<glyph unicode="&#x2005;" horiz-adv-x="415" />
<glyph unicode="&#x2006;" horiz-adv-x="276" />
<glyph unicode="&#x2007;" horiz-adv-x="276" />
<glyph unicode="&#x2008;" horiz-adv-x="207" />
<glyph unicode="&#x2009;" horiz-adv-x="332" />
<glyph unicode="&#x200a;" horiz-adv-x="92" />
<glyph unicode="&#x2010;" horiz-adv-x="668" d="M47 387l53 102h490l-46 -96q-31 -3 -63 -4.5t-78 -1.5h-38h-318z" />
<glyph unicode="&#x2011;" horiz-adv-x="668" d="M47 387l53 102h490l-46 -96q-31 -3 -63 -4.5t-78 -1.5h-38h-318z" />
<glyph unicode="&#x2012;" horiz-adv-x="668" d="M47 387l53 102h490l-46 -96q-31 -3 -63 -4.5t-78 -1.5h-38h-318z" />
<glyph unicode="&#x2013;" horiz-adv-x="1024" d="M-20 395l18 86h1022l-19 -86h-1021z" />
<glyph unicode="&#x2014;" horiz-adv-x="2048" d="M-18 395l14 86h2048l-14 -86h-2048z" />
<glyph unicode="&#x2018;" horiz-adv-x="502" d="M117 846q0 69 51.5 152.5t212.5 256.5l63 -18q-115 -133 -146.5 -192t-31.5 -117q0 -35 9.5 -78t29.5 -100l-135 -80q-28 55 -40.5 97.5t-12.5 78.5z" />
<glyph unicode="&#x2019;" horiz-adv-x="504" d="M121 674q88 122 116.5 181t28.5 106q0 41 -15.5 88.5t-53.5 115.5q24 20 52.5 39.5t74.5 46.5q38 -48 55.5 -94.5t17.5 -101.5q0 -73 -38 -153t-162 -245z" />
<glyph unicode="&#x201a;" horiz-adv-x="502" d="M25 -260q87 99 124 170t37 135q0 39 -12 82t-39 96l141 62q25 -56 36.5 -97.5t11.5 -74.5q0 -72 -60 -171.5t-176 -222.5z" />
<glyph unicode="&#x201c;" horiz-adv-x="678" d="M74 838q0 81 50.5 166.5t207.5 250.5l59 -16q-101 -121 -140.5 -195t-39.5 -137q0 -35 10 -75t31 -89l-129 -75q-25 46 -37 87t-12 83zM330 838q0 80 50 164.5t210 252.5l59 -16q-104 -125 -143 -197.5t-39 -134.5q0 -33 10.5 -72.5t32.5 -91.5l-129 -75q-27 48 -39 89 t-12 81z" />
<glyph unicode="&#x201d;" horiz-adv-x="678" d="M94 692q8 13 23 36q123 189 123 271q0 39 -13.5 83.5t-40.5 97.5l127 71q30 -47 43 -87t13 -83q0 -75 -47 -167.5t-166 -245.5zM328 690l6 10q143 230 143 322q0 32 -7.5 68.5t-25.5 87.5l125 73q28 -48 40 -84.5t12 -72.5q0 -66 -46.5 -155t-181.5 -271z" />
<glyph unicode="&#x201e;" horiz-adv-x="678" d="M-6 -262q90 111 126 179t36 122q0 32 -12 76.5t-38 109.5l142 62q23 -59 34 -104.5t11 -80.5q0 -67 -50.5 -150t-185.5 -228zM250 -268q95 141 127.5 215t32.5 137q0 27 -8.5 61.5t-24.5 77.5l135 64q22 -47 32.5 -83.5t10.5 -68.5q0 -70 -54 -164.5t-190 -255.5z" />
<glyph unicode="&#x2022;" horiz-adv-x="1208" d="M307 762q0 123 87 209t210 86q122 0 208.5 -86.5t86.5 -208.5t-87.5 -209.5t-209.5 -87.5q-123 0 -209 87t-86 210z" />
<glyph unicode="&#x2026;" horiz-adv-x="2048" d="M213 121q34 45 71.5 82t79.5 67q17 -28 41 -65t64 -92q-34 -43 -67.5 -76.5t-67.5 -59.5q-39 29 -68 63.5t-53 80.5zM895 121q34 45 71.5 82t79.5 67q17 -28 41 -65t64 -92q-34 -43 -67.5 -76.5t-67.5 -59.5q-39 29 -68 63.5t-53 80.5zM1579 121q34 45 71.5 82t79.5 67 q17 -28 41 -65t64 -92q-34 -43 -67.5 -76.5t-67.5 -59.5q-39 29 -68 63.5t-53 80.5z" />
<glyph unicode="&#x202f;" horiz-adv-x="332" />
<glyph unicode="&#x2039;" horiz-adv-x="674" d="M195 442q92 127 216 286l3 3l75 98l31 -81l-90 -127q-4 -7 -42 -63t-64 -97q32 -76 66 -167.5t71 -203.5l-78 -59q-66 149 -108.5 241.5t-79.5 169.5z" />
<glyph unicode="&#x203a;" horiz-adv-x="674" d="M158 100l90 117q24 32 51.5 72.5t71.5 111.5q-16 43 -60.5 165t-72.5 198l81 67q50 -118 97.5 -224t95.5 -204q-59 -68 -138 -159.5t-98 -112.5l-92 -102z" />
<glyph unicode="&#x205f;" horiz-adv-x="415" />
<glyph unicode="&#x20ac;" d="M-4 461l29 65h124q3 34 10.5 75t20.5 95h-145l28 66h138q75 224 222.5 358.5t326.5 134.5q63 0 122 -23.5t103 -68.5l-62 -237l-51 -25v14q0 139 -39 201t-125 62q-113 0 -202.5 -112.5t-135.5 -303.5h451l-33 -66h-432q-7 -41 -12 -85t-6 -84l377 -1l-31 -65h-346 q7 -192 82.5 -301t199.5 -109q76 0 153 36t173 116q2 -10 3 -19.5t1 -17.5q0 -5 -1 -11t-3 -16q-91 -89 -192 -131.5t-226 -42.5q-166 0 -268.5 135.5t-102.5 356.5v4h-151z" />
<glyph unicode="&#x2122;" horiz-adv-x="1683" d="M244 1260l12 178h440l11 -178h-25q-8 79 -40.5 115t-96.5 36h-21v-426q0 -23 12 -37t33 -16l31 -2v-27h-248v27l31 2q21 1 33 15.5t12 37.5v426h-20q-64 0 -97 -36t-41 -115h-26zM788 903v27l34 2q21 2 32.5 16t11.5 37v371q0 23 -12.5 37t-34.5 16l-31 2v27h183 l141 -400l148 400h174v-25l-30 -2q-22 -2 -34 -15.5t-12 -37.5v-373q0 -24 12 -37.5t34 -15.5l30 -2v-27h-236v27l31 2q21 2 33 16t12 37v395l-178 -479h-15l-174 479v-395q0 -23 12.5 -37t34.5 -16l31 -2v-27h-197z" />
<glyph unicode="&#xe000;" horiz-adv-x="895" d="M0 0v895h895v-895h-895z" />
</font>
</defs>
</svg>
